<svg id="Layer_1" data-name="Layer 1" xmlns="http://www.w3.org/2000/svg" xmlns:xlink="http://www.w3.org/1999/xlink" viewBox="0 0 500 210.78"><defs><style>.cls-1{fill:#165c7d;}.cls-2{fill:url(#Gradiente_sem_nome);}.cls-3{fill:url(#Gradiente_sem_nome_2);}.cls-4{fill:#886b25;}.cls-5{fill:url(#Gradiente_sem_nome_3);}.cls-6{fill:#007d8a;}.cls-7{fill:#007041;}</style><linearGradient id="Gradiente_sem_nome" x1="145.81" y1="-394.03" x2="201.83" y2="-394.03" gradientTransform="matrix(1, 0, 0, -1, -20.06, -271.07)" gradientUnits="userSpaceOnUse"><stop offset="0" stop-color="#00a9ce"/><stop offset="0.41" stop-color="#00a7cb"/><stop offset="0.66" stop-color="#009fc3"/><stop offset="0.86" stop-color="#0091b5"/><stop offset="1" stop-color="#0083a6"/></linearGradient><linearGradient id="Gradiente_sem_nome_2" x1="154.2" y1="-354.54" x2="204.09" y2="-354.54" gradientTransform="matrix(1, 0, 0, -1, -20.06, -271.07)" gradientUnits="userSpaceOnUse"><stop offset="0" stop-color="#ffa300"/><stop offset="0.35" stop-color="#fca200"/><stop offset="0.56" stop-color="#f49d00"/><stop offset="0.73" stop-color="#e69600"/><stop offset="0.89" stop-color="#d28b00"/><stop offset="1" stop-color="#bd8000"/></linearGradient><linearGradient id="Gradiente_sem_nome_3" x1="125.18" y1="-369.22" x2="154.2" y2="-369.22" gradientTransform="matrix(1, 0, 0, -1, -20.06, -271.07)" gradientUnits="userSpaceOnUse"><stop offset="0" stop-color="#00b140"/><stop offset="0.39" stop-color="#00ae40"/><stop offset="0.62" stop-color="#01a63e"/><stop offset="0.82" stop-color="#02983b"/><stop offset="0.99" stop-color="#038437"/><stop offset="1" stop-color="#038237"/></linearGradient></defs><title>Prancheta 26</title><path class="cls-1" d="M164.12,105.9,156.5,87.23c-.75-1.72-1.31-3-2.45-3s-1.71,1.31-2.4,3L147,98l-4.6-10.77c-.7-1.65-1.25-3-2.41-3s-1.7,1.24-2.46,3L130,105.92a3.58,3.58,0,0,0,3.53,5.16h3.35v4.25a2.77,2.77,0,0,0,2.76,2.77h1a2.77,2.77,0,0,0,2.77-2.77v-2.08a.81.81,0,0,0,0-.22v-2h7.4v4.3a2.77,2.77,0,0,0,2.77,2.77h1a2.77,2.77,0,0,0,2.77-2.77v-4.25h3.36a3.59,3.59,0,0,0,3.89-3.27,3.53,3.53,0,0,0-.37-1.91ZM143.81,109h-2.53v6.31a.7.7,0,0,1-.7.7h-1a.7.7,0,0,1-.7-.7V109h-5.39a1.8,1.8,0,0,1-1.57-.66,1.78,1.78,0,0,1,0-1.68l7.6-18.62c.1-.24.32-.75.54-1.18.14.29.31.68.51,1.16l5.32,12.6-2,5.27A4,4,0,0,0,143.81,109Zm4.5-.7a1.53,1.53,0,0,1-2.12.41,1.6,1.6,0,0,1-.41-.41,1.84,1.84,0,0,1,0-1.65l1.26-3.23,1.28,3.2A1.81,1.81,0,0,1,148.31,108.32Zm13.85,0a1.76,1.76,0,0,1-1.56.66h-5.42v6.31a.7.7,0,0,1-.7.7h-1a.7.7,0,0,1-.7-.7V109h-2.51a4,4,0,0,0,0-3.11l-2.14-5.27L153.56,88c.19-.47.37-.86.51-1.15.21.43.43.93.53,1.16l7.6,18.6a1.76,1.76,0,0,1,0,1.72Z"/><path class="cls-2" d="M168.21,120.12A28.82,28.82,0,0,1,147,129.35a19.15,19.15,0,0,1-2.63-.12,31.29,31.29,0,0,1-18.66-.8,31.25,31.25,0,0,0,55.75-23.15A31.28,31.28,0,0,1,168.21,120.12Z"/><path class="cls-3" d="M151.9,71.92A29,29,0,0,1,173,87.69a31.11,31.11,0,0,1,8.5,17.59,31.25,31.25,0,0,0-47.4-37.41c.73-.05,1.47-.08,2.21-.08A31.17,31.17,0,0,1,151.9,71.92Z"/><path class="cls-4" d="M176,100.43a28.77,28.77,0,0,1-7.74,19.69,31.28,31.28,0,0,0,13.29-14.84A31.09,31.09,0,0,0,173,87.69,28.72,28.72,0,0,1,176,100.43Z"/><path class="cls-5" d="M119.28,108.64A29,29,0,0,1,122.54,85a31.34,31.34,0,0,1,11.6-17.16,31.25,31.25,0,0,0-8.4,60.56,31.14,31.14,0,0,1-6.47-19C119.27,109.13,119.27,108.87,119.28,108.64Z"/><path class="cls-6" d="M144.4,129.23a29,29,0,0,1-25.12-20.59v.78a31.14,31.14,0,0,0,6.47,19,31.29,31.29,0,0,0,18.66.8Z"/><path class="cls-7" d="M122.54,85A29,29,0,0,1,151.9,71.92a31.17,31.17,0,0,0-15.55-4.13,20.31,20.31,0,0,0-2.21.08A31.34,31.34,0,0,0,122.54,85Z"/><path class="cls-1" d="M218.57,120.75a40.21,40.21,0,0,1-10.31,1.19c-13.09,0-16.33-6.13-16.33-20.12s3.25-20.12,16.33-20.12a41.12,41.12,0,0,1,10.31,1.2l-.71,6.17a51.32,51.32,0,0,0-8.12-.67c-9.48,0-9.65,5.67-9.65,13.42s.14,13.42,9.65,13.42a48.75,48.75,0,0,0,8.1-.68Z"/><path class="cls-1" d="M224.18,82.1h8v39.43h-8Z"/><path class="cls-1" d="M260.16,116.64c-1.23,3.8-3.19,5.33-6.07,5.33s-4.81-1.44-6.05-5.33L236.69,82.1h8.53l8.94,30.43,9-30.43h8.23Z"/><path class="cls-1" d="M275.89,82.1h8v39.43h-8Z"/><path class="cls-1" d="M288.44,121.53,300.17,87.2c1.32-3.86,3.45-5.5,6.48-5.5s5.16,1.74,6.43,5.5l11.52,34.33h-8.49l-3-9.76H299.64l-2.94,9.76Zm22.78-15.89-4.91-16-4.82,16Z"/><path class="cls-1" d="M201.65,148.72a16.76,16.76,0,0,1-3.61.38c-4.93,0-6.14-2.39-6.14-7.84s1.21-7.84,6.14-7.84a17.42,17.42,0,0,1,3.61.38l-.19,1.67a18.68,18.68,0,0,0-2.8-.25c-4.38,0-4.6,2.32-4.6,6s.26,6,4.6,6a16.37,16.37,0,0,0,2.8-.24Z"/><path class="cls-1" d="M204,141.26c0-5.56,1.31-7.84,5.93-7.84s5.92,2.28,5.92,7.84-1.31,7.84-5.92,7.84S204,146.82,204,141.26Zm9.7,0c0-3.57-.13-6.06-3.77-6.06s-3.77,2.49-3.77,6.06.11,6.06,3.77,6.06S213.65,144.83,213.65,141.26Z"/><path class="cls-1" d="M218.83,141.26c0-5.56,1.31-7.84,5.93-7.84s5.92,2.28,5.92,7.84-1.31,7.84-5.92,7.84S218.83,146.82,218.83,141.26Zm9.7,0c0-3.57-.13-6.06-3.77-6.06s-3.72,2.49-3.72,6.06.11,6.06,3.77,6.06,3.72-2.49,3.72-6.06Z"/><path class="cls-1" d="M236.19,148.94H234V133.81a28.72,28.72,0,0,1,4.72-.39c3.28,0,6,.67,6,4.7s-2.38,4.8-5.77,4.8c-.8,0-2.06,0-2.79-.09Zm0-7.84a22.8,22.8,0,0,0,2.61.12c2.46,0,3.85-.62,3.85-3.1,0-2.14-1-3-3.77-3a24.3,24.3,0,0,0-2.69.18Z"/><path class="cls-1" d="M256.37,135.3h-3.91c-2.48,0-2.89.47-2.89,2.67v2.3H256V142h-6.5v2.59c0,2.2.41,2.67,2.89,2.67h3.91v1.66c-1.15,0-2.73.09-3.84.09-2.63,0-5.07-.14-5.07-3.5v-8.43c0-3.36,2.44-3.51,5.07-3.51,1,0,2.67,0,3.84.1Z"/><path class="cls-1" d="M259.62,148.94V133.81a28.72,28.72,0,0,1,4.72-.39c3.26,0,6,.64,6,4.64,0,2.91-1.36,4.12-3.45,4.54l3.63,6.34H268l-3.38-6.14h-.11c-.8,0-2.05-.06-2.77-.1v6.24Zm2.12-8a18.93,18.93,0,0,0,2.6.12c2.44,0,3.85-.61,3.85-3,0-2.13-1-3-3.77-3a22,22,0,0,0-2.68.19Z"/><path class="cls-1" d="M272.29,148.94l4.94-14a1.79,1.79,0,0,1,2.07-1.46,1.76,1.76,0,0,1,1.46,1.46l4.87,14h-2.25l-1.43-4.3h-6.06l-1.42,4.26Zm9.1-5.92-2.48-7.38-2.47,7.41Z"/><path class="cls-1" d="M297,135.32h-4v13.62h-2.12V135.32h-4v-1.74H297Z"/><path class="cls-1" d="M299.4,133.58h2.13v15.36H299.4Z"/><path class="cls-1" d="M312,147.64c-.36,1-.88,1.48-1.66,1.48s-1.34-.48-1.69-1.48l-4.68-14h2.26l4.11,13,4.16-13h2.16Z"/><path class="cls-1" d="M317.94,148.94l4.94-14a1.79,1.79,0,0,1,2.07-1.46,1.76,1.76,0,0,1,1.46,1.46l4.87,14H329l-1.44-4.3h-6.06l-1.42,4.26ZM327,143l-2.48-7.38-2.47,7.41Z"/><path class="cls-1" d="M338.61,148.94l4.94-14a1.79,1.79,0,0,1,2.07-1.46,1.76,1.76,0,0,1,1.46,1.46l4.87,14H349.7l-1.43-4.3h-6.06l-1.42,4.26Zm9.1-5.92-2.48-7.38-2.47,7.41Z"/><path class="cls-1" d="M354.46,133.58h2.13v15.36h-2.13Z"/><path class="cls-1" d="M369,148.9c-1.17,0-2.56.08-3.58.08-2.62,0-5.07-.14-5.07-3.5v-11.9h2.12v11c0,2.19.41,2.67,2.89,2.67H369Z"/><path class="cls-1" d="M370.81,141.26c0-5.56,1.31-7.84,5.93-7.84s5.92,2.28,5.92,7.84-1.31,7.84-5.92,7.84S370.81,146.82,370.81,141.26Zm9.7,0c0-3.57-.13-6.06-3.77-6.06s-3.77,2.49-3.77,6.06.11,6.06,3.77,6.06S380.51,144.83,380.51,141.26Z"/><path class="cls-1" d="M387.44,137.32c0,1.93,1,2.21,3.27,2.85,2.59.74,4.17,1.76,4.17,4.52,0,3.23-1.95,4.41-5.45,4.41a18.59,18.59,0,0,1-4-.4l.21-1.72a26.46,26.46,0,0,0,3.76.3c2,0,3.33-.44,3.33-2.51,0-1.82-1.32-2.24-3.09-2.78-2.7-.83-4.28-1.57-4.28-4.38,0-3.16,1.88-4.19,5.25-4.19a22.22,22.22,0,0,1,4,.39l-.19,1.68a22.89,22.89,0,0,0-3.11-.27C389.48,135.22,387.44,135.39,387.44,137.32Z"/></svg>