<svg id="Layer_1" data-name="Layer 1" xmlns="http://www.w3.org/2000/svg" xmlns:xlink="http://www.w3.org/1999/xlink" viewBox="0 0 500 210.78"><defs><style>.cls-1{fill:#165c7d;}.cls-2{fill:url(#Gradiente_sem_nome);}.cls-3{fill:url(#Gradiente_sem_nome_2);}.cls-4{fill:#886b25;}.cls-5{fill:url(#Gradiente_sem_nome_3);}.cls-6{fill:#007d8a;}.cls-7{fill:#007041;}</style><linearGradient id="Gradiente_sem_nome" x1="125.93" y1="67.45" x2="181.93" y2="67.45" gradientTransform="matrix(1, 0, 0, -1, -19.92, 190.63)" gradientUnits="userSpaceOnUse"><stop offset="0" stop-color="#00a9ce"/><stop offset="0.41" stop-color="#00a7cb"/><stop offset="0.66" stop-color="#009fc3"/><stop offset="0.86" stop-color="#0091b5"/><stop offset="1" stop-color="#0083a6"/></linearGradient><linearGradient id="Gradiente_sem_nome_2" x1="134.35" y1="106.88" x2="184.25" y2="106.88" gradientTransform="matrix(1, 0, 0, -1, -19.92, 190.63)" gradientUnits="userSpaceOnUse"><stop offset="0" stop-color="#ffa300"/><stop offset="0.35" stop-color="#fca200"/><stop offset="0.56" stop-color="#f49d00"/><stop offset="0.73" stop-color="#e69600"/><stop offset="0.89" stop-color="#d28b00"/><stop offset="1" stop-color="#bd8000"/></linearGradient><linearGradient id="Gradiente_sem_nome_3" x1="105.32" y1="92.25" x2="134.35" y2="92.25" gradientTransform="matrix(1, 0, 0, -1, -19.92, 190.63)" gradientUnits="userSpaceOnUse"><stop offset="0" stop-color="#00b140"/><stop offset="0.39" stop-color="#00ae40"/><stop offset="0.62" stop-color="#01a63e"/><stop offset="0.82" stop-color="#02983b"/><stop offset="0.99" stop-color="#038437"/><stop offset="1" stop-color="#038237"/></linearGradient></defs><title>Prancheta 11</title><path class="cls-1" d="M144.42,106.14,136.8,87.47c-.75-1.73-1.31-3-2.45-3s-1.71,1.32-2.4,3l-4.64,10.76-4.58-10.76c-.69-1.65-1.24-3-2.4-3s-1.7,1.24-2.46,3l-7.62,18.68a3.61,3.61,0,0,0,3.53,5.17h3.36v4.25a2.77,2.77,0,0,0,2.77,2.77h1a2.77,2.77,0,0,0,2.77-2.77v-2.08a.81.81,0,0,0,0-.22v-2h7.4v4.3a2.77,2.77,0,0,0,2.77,2.77h1a2.78,2.78,0,0,0,2.77-2.77v-4.25H141a3.6,3.6,0,0,0,3.9-3.26,3.54,3.54,0,0,0-.37-1.92Zm-20.31,3.11h-2.54v6.32a.7.7,0,0,1-.7.7h-1a.71.71,0,0,1-.7-.7v-6.32h-5.39A1.56,1.56,0,0,1,112,108a1.53,1.53,0,0,1,.2-1.09l7.6-18.63c.11-.23.33-.74.54-1.18.15.3.32.69.52,1.16l5.36,12.61-2,5.27A4.06,4.06,0,0,0,124.11,109.25Zm4.49-.69a1.52,1.52,0,0,1-2.11.41,1.6,1.6,0,0,1-.41-.41,1.86,1.86,0,0,1,0-1.66l1.26-3.23,1.3,3.24A1.81,1.81,0,0,1,128.6,108.56Zm13.86,0a1.84,1.84,0,0,1-1.57.65h-5.41v6.32a.7.7,0,0,1-.7.7h-1a.71.71,0,0,1-.7-.7v-6.28h-2.51a4,4,0,0,0,0-3.1l-2.09-5.27,5.42-12.61c.2-.48.37-.86.51-1.16.22.43.44.94.53,1.16l7.54,18.63a1.77,1.77,0,0,1,0,1.7Z"/><path class="cls-2" d="M148.48,120.36a28.83,28.83,0,0,1-21.18,9.22,19,19,0,0,1-2.62-.12,31.48,31.48,0,0,1-18.67-.8,31.26,31.26,0,0,0,56-19,28.19,28.19,0,0,0-.27-4.11A31.35,31.35,0,0,1,148.48,120.36Z"/><path class="cls-3" d="M132.19,72.16A29,29,0,0,1,153.3,87.92a31.11,31.11,0,0,1,8.5,17.6A31.26,31.26,0,0,0,114.48,68.1c.74,0,1.47-.07,2.22-.07A31,31,0,0,1,132.19,72.16Z"/><path class="cls-4" d="M156.25,100.67a28.75,28.75,0,0,1-7.77,19.69,31.34,31.34,0,0,0,13.32-14.84,31.11,31.11,0,0,0-8.5-17.6A28.73,28.73,0,0,1,156.25,100.67Z"/><path class="cls-5" d="M99.57,108.85a29.06,29.06,0,0,1,3.27-23.59A31.33,31.33,0,0,1,114.48,68.1a31.25,31.25,0,0,0-8.4,60.56,31.18,31.18,0,0,1-6.47-19A4.53,4.53,0,0,1,99.57,108.85Z"/><path class="cls-6" d="M124.7,129.46a29,29,0,0,1-25.13-20.61v.78a31.18,31.18,0,0,0,6.47,19,31.48,31.48,0,0,0,18.67.8Z"/><path class="cls-7" d="M102.84,85.26a29,29,0,0,1,29.35-13.1A31,31,0,0,0,116.65,68c-.75,0-1.48,0-2.22.07A31.31,31.31,0,0,0,102.84,85.26Z"/><path class="cls-1" d="M182.09,148.37a16.76,16.76,0,0,1-3.61.38c-4.94,0-6.15-2.38-6.15-7.83s1.22-7.84,6.15-7.84a16.76,16.76,0,0,1,3.61.37l-.2,1.67a16.37,16.37,0,0,0-2.8-.24c-4.37,0-4.59,2.32-4.59,6s.26,6,4.59,6a18.69,18.69,0,0,0,2.81-.24Z"/><path class="cls-1" d="M184.39,140.92c0-5.57,1.31-7.84,5.92-7.84s5.93,2.27,5.93,7.84-1.31,7.83-5.93,7.83S184.39,146.48,184.39,140.92Zm9.69,0c0-3.58-.13-6.07-3.77-6.07s-3.77,2.49-3.77,6.07.12,6.06,3.77,6.06S194.08,144.48,194.08,140.92Z"/><path class="cls-1" d="M199.26,140.92c0-5.57,1.32-7.84,5.93-7.84s5.92,2.27,5.92,7.84-1.3,7.83-5.92,7.83S199.26,146.48,199.26,140.92Zm9.7,0c0-3.58-.13-6.07-3.77-6.07s-3.77,2.49-3.77,6.07.12,6.06,3.77,6.06S209,144.48,209,140.92Z"/><path class="cls-1" d="M216.63,148.6h-2.15V133.46a28.8,28.8,0,0,1,4.72-.38c3.28,0,6,.66,6,4.7s-2.38,4.8-5.78,4.8c-.8,0-2.06-.06-2.78-.1Zm0-7.85a25.34,25.34,0,0,0,2.61.13c2.46,0,3.84-.62,3.84-3.1,0-2.14-1-3-3.77-3a20.11,20.11,0,0,0-2.68.18Z"/><path class="cls-1" d="M236.81,135H232.9c-2.48,0-2.9.48-2.9,2.68v2.29h6.48v1.71H230v2.58c0,2.21.42,2.67,2.9,2.67h3.91v1.66c-1.16.06-2.74.09-3.85.09-2.63,0-5.07-.13-5.07-3.5V136.7c0-3.36,2.44-3.5,5.07-3.5,1,0,2.67,0,3.85.1Z"/><path class="cls-1" d="M240.05,148.6V133.46a29.94,29.94,0,0,1,4.72-.38c3.26,0,6,.63,6,4.64,0,2.91-1.36,4.11-3.45,4.53l3.62,6.35h-2.46l-3.37-6.15H245c-.8,0-2.05-.06-2.78-.1v6.25Zm2.12-8a22.73,22.73,0,0,0,2.6.12c2.44,0,3.85-.62,3.85-3,0-2.12-1-2.94-3.77-2.94a20.11,20.11,0,0,0-2.68.18Z"/><path class="cls-1" d="M252.73,148.6l4.94-14a1.79,1.79,0,0,1,3.53,0l4.87,14h-2.25l-1.43-4.26h-6.07l-1.41,4.26Zm9.1-5.92-2.48-7.41-2.47,7.41Z"/><path class="cls-1" d="M277.39,135h-4v13.63h-2.12V135h-4v-1.78h10.14Z"/><path class="cls-1" d="M279.84,133.24H282V148.6h-2.13Z"/><path class="cls-1" d="M292.48,147.28c-.35,1-.87,1.47-1.66,1.47s-1.31-.43-1.66-1.47l-4.68-14h2.26l4.11,13,4.16-13h2.16Z"/><path class="cls-1" d="M298.38,148.6l4.94-14a1.79,1.79,0,0,1,3.53,0l4.87,14h-2.24l-1.43-4.26H302l-1.41,4.26Zm9.1-5.92L305,135.27l-2.51,7.41Z"/><path class="cls-1" d="M319.05,148.6l4.94-14a1.79,1.79,0,0,1,3.53,0l4.87,14h-2.25l-1.43-4.26h-6.07l-1.41,4.26Zm9.1-5.92-2.49-7.41-2.47,7.41Z"/><path class="cls-1" d="M334.9,133.24H337V148.6H334.9Z"/><path class="cls-1" d="M349.41,148.56c-1.17,0-2.57.07-3.59.07-2.62,0-5.07-.13-5.07-3.5V133.24h2.13v11c0,2.2.41,2.67,2.88,2.67h3.65Z"/><path class="cls-1" d="M351.24,140.92c0-5.57,1.32-7.84,5.93-7.84s5.92,2.27,5.92,7.84-1.3,7.83-5.92,7.83S351.24,146.48,351.24,140.92Zm9.7,0c0-3.58-.13-6.07-3.77-6.07s-3.77,2.49-3.77,6.07.08,6.1,3.77,6.1,3.77-2.54,3.77-6.1Z"/><path class="cls-1" d="M367.88,137c0,1.94,1,2.22,3.27,2.86,2.59.73,4.17,1.76,4.17,4.51,0,3.23-2,4.41-5.46,4.41a19.24,19.24,0,0,1-4-.39l.21-1.73a29.76,29.76,0,0,0,3.76.3c2,0,3.33-.43,3.33-2.51,0-1.82-1.33-2.24-3.09-2.78-2.7-.82-4.28-1.57-4.28-4.38,0-3.15,1.88-4.18,5.24-4.18a20.55,20.55,0,0,1,4,.39l-.19,1.68a21.66,21.66,0,0,0-3.12-.28C369.92,134.87,367.88,135,367.88,137Z"/><path class="cls-1" d="M172.31,121.19,184,86.85c1.32-3.86,3.45-5.5,6.48-5.5s5.16,1.74,6.43,5.5l11.53,34.34H200l-3-9.77h-13.5l-2.94,9.77Zm22.78-15.91-4.91-15.94-4.82,15.94Z"/><path class="cls-1" d="M237.82,120.41a41.81,41.81,0,0,1-10.34,1.18c-13.1,0-16.33-6.12-16.33-20.12s3.33-20.12,16.33-20.12a40.58,40.58,0,0,1,10.3,1.2l-.71,6.18a50.18,50.18,0,0,0-8.12-.68c-9.48,0-9.65,5.67-9.65,13.42s.14,13.42,9.65,13.42a49.84,49.84,0,0,0,8.1-.68Z"/><path class="cls-1" d="M267.68,88.15H256.8c-4.72,0-5.53,1-5.53,5.33V98h15.67v6.36H251.27v5.12c0,4.36.81,5.36,5.53,5.36h10.88V121c-2.78.14-8.07.31-10.71.31-7.13,0-13.69-.39-13.69-9.63V91.27c0-9.24,6.56-9.61,13.69-9.61,2.86,0,8,.15,10.71.28Z"/><path class="cls-1" d="M299.18,110.68V81.76h7.19v33.82c0,4.2-1.76,6-4.84,6s-4.77-1.27-6.8-5.19L282.22,92.16v29H275V87.34c0-4.2,1.81-6,4.84-6,2.74,0,4.81,1.37,6.79,5.18Z"/><path class="cls-1" d="M339.05,88.22h-9.69v33h-8v-33h-9.65V81.76h27.38Z"/><path class="cls-1" d="M352.24,121.19h-8V82.43a74.54,74.54,0,0,1,12.82-1.08c8.72,0,15.84,1.73,15.84,12.39,0,7-2.93,10.25-7.56,11.66l9,15.79h-9.2l-8.09-14.88c-1.61,0-3.44-.08-4.83-.17Zm0-21.41a42,42,0,0,0,4.88.2c5,0,7.88-1.27,7.88-6.28,0-4.36-2-6.1-7.71-6.1a38.93,38.93,0,0,0-5.05.33Z"/><path class="cls-1" d="M378.38,121.19,390.1,86.85c1.32-3.86,3.46-5.5,6.49-5.5s5.16,1.74,6.43,5.5l11.52,34.34H406l-3-9.77H389.58l-2.94,9.77Zm22.77-15.91-4.9-15.94-4.83,15.94Z"/></svg>