<svg id="Layer_1" data-name="Layer 1" xmlns="http://www.w3.org/2000/svg" xmlns:xlink="http://www.w3.org/1999/xlink" viewBox="0 0 500 210.78"><defs><style>.cls-1{fill:#165c7d;}.cls-2{fill:url(#Gradiente_sem_nome);}.cls-3{fill:url(#Gradiente_sem_nome_2);}.cls-4{fill:#886b25;}.cls-5{fill:url(#Gradiente_sem_nome_3);}.cls-6{fill:#007d8a;}.cls-7{fill:#007041;}</style><linearGradient id="Gradiente_sem_nome" x1="145.52" y1="528.53" x2="201.55" y2="528.53" gradientTransform="matrix(1, 0, 0, -1, -20.12, 651.99)" gradientUnits="userSpaceOnUse"><stop offset="0" stop-color="#00a9ce"/><stop offset="0.41" stop-color="#00a7cb"/><stop offset="0.66" stop-color="#009fc3"/><stop offset="0.86" stop-color="#0091b5"/><stop offset="1" stop-color="#0083a6"/></linearGradient><linearGradient id="Gradiente_sem_nome_2" x1="153.92" y1="567.99" x2="203.79" y2="567.99" gradientTransform="matrix(1, 0, 0, -1, -20.12, 651.99)" gradientUnits="userSpaceOnUse"><stop offset="0" stop-color="#ffa300"/><stop offset="0.35" stop-color="#fca200"/><stop offset="0.56" stop-color="#f49d00"/><stop offset="0.73" stop-color="#e69600"/><stop offset="0.89" stop-color="#d28b00"/><stop offset="1" stop-color="#bd8000"/></linearGradient><linearGradient id="Gradiente_sem_nome_3" x1="124.89" y1="553.37" x2="153.92" y2="553.37" gradientTransform="matrix(1, 0, 0, -1, -20.12, 651.99)" gradientUnits="userSpaceOnUse"><stop offset="0" stop-color="#00b140"/><stop offset="0.39" stop-color="#00ae40"/><stop offset="0.62" stop-color="#01a63e"/><stop offset="0.82" stop-color="#02983b"/><stop offset="0.99" stop-color="#038437"/><stop offset="1" stop-color="#038237"/></linearGradient></defs><title>logo_unilos_space_pos</title><path class="cls-1" d="M221.84,107.71c0,10.85-5.84,13.69-14.79,13.69s-14.81-2.84-14.81-13.69V81.57h7.91v26.58c0,4.69,1.79,6.53,6.9,6.53s6.89-1.84,6.89-6.53V81.57h7.9ZM208.37,71.14h8.27l-7.79,7.33h-6.14Z"/><path class="cls-1" d="M253.85,110.49V81.57H261v33.82c0,4.2-1.76,6-4.84,6s-4.77-1.27-6.8-5.19L236.89,92v29H229.7V87.15c0-4.19,1.81-6,4.84-6,2.74,0,4.8,1.37,6.78,5.18Z"/><path class="cls-1" d="M269,81.57h8V121h-8Z"/><path class="cls-1" d="M308.64,120.83c-2.8.11-7.62.27-10.09.27-7.12,0-13.69-.39-13.69-9.63V81.57h8v27.66c0,4.39.8,5.37,5.52,5.37h10.26Z"/><path class="cls-1" d="M311.91,101.28c0-14.28,3.51-20.12,15.77-20.12s15.76,5.84,15.76,20.12-3.5,20.12-15.8,20.12S311.91,115.56,311.91,101.28Zm23.41,0c0-8-.17-13.54-7.64-13.54S320,93.24,320,101.28s.17,13.52,7.64,13.52,7.64-5.48,7.64-13.52Z"/><path class="cls-1" d="M356.71,91.75c0,4,2.71,4.51,7.25,5.72,7.54,2,10.79,5,10.79,12.1,0,8.7-5.29,11.83-14.63,11.83a52.55,52.55,0,0,1-11.39-1.22l.77-6.31a83,83,0,0,0,10.33.88c4.14,0,6.68-.93,6.68-4.89,0-3.67-2.89-4.5-6.55-5.62-7.07-2.16-11.23-4.35-11.23-11.79,0-8.55,5-11.29,14.11-11.29a56.41,56.41,0,0,1,11.29,1.24l-.73,6.14a56.22,56.22,0,0,0-8.68-.86C361.54,87.68,356.71,87.81,356.71,91.75Z"/><path class="cls-1" d="M202,148.18a16.28,16.28,0,0,1-3.61.38c-4.94,0-6.15-2.38-6.15-7.83s1.22-7.84,6.15-7.84a17.55,17.55,0,0,1,3.61.37l-.19,1.67a18.92,18.92,0,0,0-2.81-.24c-4.37,0-4.59,2.32-4.59,6s.26,6,4.59,6a16.57,16.57,0,0,0,2.81-.24Z"/><path class="cls-1" d="M204.3,140.73c0-5.57,1.31-7.84,5.92-7.84s5.93,2.27,5.93,7.84-1.31,7.83-5.93,7.83S204.3,146.29,204.3,140.73Zm9.69,0c0-3.58-.13-6.07-3.77-6.07s-3.77,2.49-3.77,6.07.12,6.06,3.77,6.06S214,144.29,214,140.73Z"/><path class="cls-1" d="M219.17,140.73c0-5.57,1.32-7.84,5.93-7.84s5.92,2.27,5.92,7.84-1.3,7.83-5.92,7.83S219.17,146.29,219.17,140.73Zm9.7,0c0-3.58-.13-6.07-3.77-6.07s-3.77,2.49-3.77,6.07.12,6.06,3.77,6.06S228.87,144.29,228.87,140.73Z"/><path class="cls-1" d="M236.54,148.41h-2.11V133.27a29.85,29.85,0,0,1,4.72-.38c3.28,0,6,.66,6,4.7s-2.38,4.8-5.78,4.8c-.8,0-2.06-.06-2.78-.09Zm0-7.85a22.81,22.81,0,0,0,2.61.13c2.46,0,3.85-.62,3.85-3.1,0-2.14-1-3-3.77-3a20.15,20.15,0,0,0-2.69.18Z"/><path class="cls-1" d="M256.72,134.76h-3.91c-2.48,0-2.9.48-2.9,2.68v2.29h6.51v1.71h-6.51V144c0,2.21.42,2.67,2.9,2.67h3.91v1.66c-1.16.06-2.74.09-3.85.09-2.62,0-5.07-.13-5.07-3.5v-8.43c0-3.36,2.45-3.5,5.07-3.5,1,0,2.67,0,3.85.1Z"/><path class="cls-1" d="M260,148.41V133.27a29.85,29.85,0,0,1,4.72-.38c3.25,0,5.95.63,5.95,4.64,0,2.91-1.36,4.11-3.45,4.53l3.62,6.35h-2.47L265,142.26h-.11c-.8,0-2.05-.06-2.78-.1v6.25Zm2.11-8a22.8,22.8,0,0,0,2.61.12c2.43,0,3.84-.61,3.84-3,0-2.12-1-2.94-3.77-2.94a24,24,0,0,0-2.68.18Z"/><path class="cls-1" d="M272.64,148.41l4.94-14a1.79,1.79,0,0,1,3.53,0l4.87,14h-2.25l-1.43-4.26h-6.07l-1.41,4.26Zm9.1-5.92-2.48-7.41-2.47,7.41Z"/><path class="cls-1" d="M297.31,134.78h-4v13.63h-2.12V134.78h-4v-1.7h10.14Z"/><path class="cls-1" d="M299.75,133.08h2.13v15.36h-2.13Z"/><path class="cls-1" d="M312.36,147.08c-.35,1-.87,1.47-1.66,1.47s-1.31-.42-1.66-1.47l-4.68-14h2.28l4.11,13,4.16-13h2.16Z"/><path class="cls-1" d="M318.29,148.41l4.94-14a1.79,1.79,0,0,1,3.53,0l4.87,14h-2.25L328,144.15h-6.07l-1.41,4.26Zm9.1-5.92-2.48-7.41-2.47,7.41Z"/><path class="cls-1" d="M339,148.41l4.94-14a1.79,1.79,0,0,1,3.53,0l4.87,14h-2.25l-1.41-4.26h-6.07l-1.41,4.26Zm9.1-5.92-2.48-7.41-2.47,7.41Z"/><path class="cls-1" d="M354.81,133.08h2.13v15.36h-2.13Z"/><path class="cls-1" d="M369.32,148.37c-1.17,0-2.57.07-3.59.07-2.62,0-5.07-.13-5.07-3.5V133.08h2.13v11c0,2.2.41,2.67,2.88,2.67h3.65Z"/><path class="cls-1" d="M371.15,140.73c0-5.57,1.32-7.84,5.93-7.84s5.92,2.27,5.92,7.84-1.3,7.83-5.92,7.83S371.15,146.29,371.15,140.73Zm9.7,0c0-3.58-.13-6.07-3.77-6.07s-3.77,2.49-3.77,6.07.12,6.06,3.77,6.06,3.77-2.5,3.77-6.06Z"/><path class="cls-1" d="M387.79,136.78c0,1.94,1,2.22,3.27,2.86,2.59.73,4.17,1.76,4.17,4.51,0,3.23-2,4.41-5.45,4.41a19.17,19.17,0,0,1-4-.39l.21-1.73a29.47,29.47,0,0,0,3.76.3c2,0,3.33-.43,3.33-2.51,0-1.82-1.33-2.24-3.09-2.78-2.74-.82-4.35-1.57-4.35-4.37,0-3.15,1.88-4.18,5.24-4.18a22.4,22.4,0,0,1,4,.39l-.19,1.68a22.32,22.32,0,0,0-3.05-.29C389.83,134.68,387.79,134.86,387.79,136.78Z"/><path class="cls-1" d="M163.78,106.4l-7.62-18.67c-.75-1.72-1.31-3-2.45-3s-1.71,1.31-2.4,3L146.64,98.5l-4.55-10.77c-.69-1.65-1.24-3-2.4-3s-1.7,1.24-2.46,3l-7.59,18.68a3.59,3.59,0,0,0,3.53,5.17h3.35v4.25a2.77,2.77,0,0,0,2.76,2.77h1a2.77,2.77,0,0,0,2.77-2.77v-4.3h7.4v2a.81.81,0,0,0,0,.22v2.08a2.77,2.77,0,0,0,2.77,2.77h1a2.77,2.77,0,0,0,2.77-2.77v-4.25h3.36a3.6,3.6,0,0,0,3.52-5.18Zm-20.31,3.12h-2.53v6.31a.7.7,0,0,1-.7.7h-1a.7.7,0,0,1-.7-.7v-6.31h-5.39a1.82,1.82,0,0,1-1.57-.66,1.79,1.79,0,0,1,0-1.68l7.6-18.62c.1-.24.32-.75.54-1.18.14.29.31.68.51,1.16l5.36,12.6-2,5.27A4,4,0,0,0,143.47,109.52Zm4.5-.7a1.53,1.53,0,0,1-2.13.4,1.39,1.39,0,0,1-.4-.4,1.84,1.84,0,0,1,0-1.65l1.2-3.23,1.3,3.23A1.84,1.84,0,0,1,148,108.82Zm13.85,0a1.83,1.83,0,0,1-1.56.66h-5.42v6.31a.7.7,0,0,1-.7.7h-1a.7.7,0,0,1-.7-.7v-6.27h-2.51a4,4,0,0,0,0-3.11l-2.11-5.27,5.43-12.61c.19-.47.36-.86.51-1.15.21.43.43.93.53,1.16l7.6,18.63a1.78,1.78,0,0,1-.07,1.69Z"/><path class="cls-2" d="M167.87,120.62a28.85,28.85,0,0,1-21.18,9.23,19.15,19.15,0,0,1-2.63-.12,31.36,31.36,0,0,1-18.66-.8,31.25,31.25,0,0,0,55.76-23.15A31.38,31.38,0,0,1,167.87,120.62Z"/><path class="cls-3" d="M151.56,72.42a29,29,0,0,1,21.08,15.77,31.11,31.11,0,0,1,8.5,17.59A31.25,31.25,0,0,0,133.8,68.37c.73-.05,1.47-.08,2.21-.08A31.06,31.06,0,0,1,151.56,72.42Z"/><path class="cls-4" d="M175.64,100.93a28.82,28.82,0,0,1-7.74,19.69,31.37,31.37,0,0,0,13.26-14.84,31.17,31.17,0,0,0-8.52-17.59A28.88,28.88,0,0,1,175.64,100.93Z"/><path class="cls-5" d="M118.94,109.08a29,29,0,0,1,3.26-23.59,31.22,31.22,0,0,1,11.6-17.15,31.25,31.25,0,0,0-8.4,60.56,31.1,31.1,0,0,1-6.47-19C118.93,109.63,118.93,109.37,118.94,109.08Z"/><path class="cls-6" d="M144.06,129.73a28.93,28.93,0,0,1-25.12-20.65v.78a31.1,31.1,0,0,0,6.47,19,31.36,31.36,0,0,0,18.66.8Z"/><path class="cls-7" d="M122.2,85.52a29,29,0,0,1,29.36-13.1A31.06,31.06,0,0,0,136,68.29a20.31,20.31,0,0,0-2.21.08A31.22,31.22,0,0,0,122.2,85.52Z"/></svg>