<svg id="Layer_1" data-name="Layer 1" xmlns="http://www.w3.org/2000/svg" xmlns:xlink="http://www.w3.org/1999/xlink" viewBox="0 0 500 210.78"><defs><style>.cls-1{fill:#165c7d;}.cls-2{fill:url(#Gradiente_sem_nome);}.cls-3{fill:url(#Gradiente_sem_nome_2);}.cls-4{fill:#886b25;}.cls-5{fill:url(#Gradiente_sem_nome_3);}.cls-6{fill:#007d8a;}.cls-7{fill:#007041;}</style><linearGradient id="Gradiente_sem_nome" x1="145.78" y1="528.97" x2="201.78" y2="528.97" gradientTransform="matrix(1, 0, 0, -1, -19.92, 652.19)" gradientUnits="userSpaceOnUse"><stop offset="0" stop-color="#00a9ce"/><stop offset="0.41" stop-color="#00a7cb"/><stop offset="0.66" stop-color="#009fc3"/><stop offset="0.86" stop-color="#0091b5"/><stop offset="1" stop-color="#0083a6"/></linearGradient><linearGradient id="Gradiente_sem_nome_2" x1="154.2" y1="568.4" x2="204.1" y2="568.4" gradientTransform="matrix(1, 0, 0, -1, -19.92, 652.19)" gradientUnits="userSpaceOnUse"><stop offset="0" stop-color="#ffa300"/><stop offset="0.35" stop-color="#fca200"/><stop offset="0.56" stop-color="#f49d00"/><stop offset="0.73" stop-color="#e69600"/><stop offset="0.89" stop-color="#d28b00"/><stop offset="1" stop-color="#bd8000"/></linearGradient><linearGradient id="Gradiente_sem_nome_3" x1="125.17" y1="553.77" x2="154.2" y2="553.77" gradientTransform="matrix(1, 0, 0, -1, -19.92, 652.19)" gradientUnits="userSpaceOnUse"><stop offset="0" stop-color="#00b140"/><stop offset="0.39" stop-color="#00ae40"/><stop offset="0.62" stop-color="#01a63e"/><stop offset="0.82" stop-color="#02983b"/><stop offset="0.99" stop-color="#038437"/><stop offset="1" stop-color="#038237"/></linearGradient></defs><title>Prancheta 9</title><path class="cls-1" d="M216.13,88.15H205.25c-4.72,0-5.54,1-5.54,5.33V98h15.67v6.36H199.71v5.11c0,4.37.82,5.37,5.54,5.37h10.88V121c-2.78.14-8.07.3-10.71.3-7.13,0-13.69-.39-13.69-9.62V91.26c0-9.23,6.56-9.61,13.69-9.61,2.86,0,8,.16,10.71.29Z"/><path class="cls-1" d="M243.47,116.26c-1.24,3.81-3.2,5.33-6.08,5.33s-4.81-1.41-6.09-5.33L220,81.75h8.52l8.94,30.43,9-30.43h8.22Z"/><path class="cls-1" d="M258.16,101.47c0-14.28,3.5-20.12,15.77-20.12s15.76,5.84,15.76,20.12-3.51,20.12-15.76,20.12S258.16,115.75,258.16,101.47Zm23.4,0c0-8-.16-13.54-7.63-13.54s-7.6,5.5-7.6,13.54S266.5,115,274,115,281.56,109.51,281.56,101.47Z"/><path class="cls-1" d="M320.27,121.06c-2.79.12-7.61.27-10.08.27-7.13,0-13.69-.39-13.69-9.62v-30h8v27.67c0,4.38.79,5.37,5.51,5.37h10.24Z"/><path class="cls-1" d="M353.94,107.9c0,10.85-5.84,13.69-14.79,13.69s-14.82-2.84-14.82-13.69V81.75h7.9v26.59c0,4.69,1.8,6.53,6.91,6.53S346,113,346,108.34V81.75h7.9Z"/><path class="cls-1" d="M358.33,121.18l11.72-34.33c1.32-3.86,3.45-5.5,6.48-5.5s5.17,1.74,6.43,5.5l11.53,34.33H386l-3-9.76H369.55l-3,9.76Zm22.77-15.9-4.9-15.94-4.83,15.94Z"/><path class="cls-1" d="M201.46,148.37a16.16,16.16,0,0,1-3.61.38c-4.93,0-6.14-2.39-6.14-7.84s1.21-7.85,6.14-7.85a16.76,16.76,0,0,1,3.61.37l-.19,1.67a18.68,18.68,0,0,0-2.8-.25c-4.38,0-4.6,2.33-4.6,6s.26,6,4.6,6a18.67,18.67,0,0,0,2.8-.24Z"/><path class="cls-1" d="M203.76,140.91c0-5.56,1.31-7.83,5.93-7.83s5.92,2.27,5.92,7.83-1.31,7.84-5.92,7.84S203.76,146.48,203.76,140.91Zm9.7,0c0-3.57-.13-6.06-3.77-6.06s-3.77,2.49-3.77,6.06S206,147,209.69,147,213.46,144.48,213.46,140.91Z"/><path class="cls-1" d="M218.64,140.91c0-5.56,1.31-7.83,5.93-7.83s5.92,2.27,5.92,7.83-1.31,7.84-5.92,7.84S218.64,146.48,218.64,140.91Zm9.7,0c0-3.57-.13-6.06-3.77-6.06s-3.77,2.49-3.77,6.06.11,6.07,3.77,6.07,3.76-2.5,3.76-6.07Z"/><path class="cls-1" d="M236,148.59h-2.11V133.46a29.85,29.85,0,0,1,4.72-.38c3.28,0,5.95.66,5.95,4.7s-2.38,4.79-5.77,4.79c-.8,0-2.06,0-2.79-.09Zm0-7.84a22.8,22.8,0,0,0,2.61.12c2.46,0,3.85-.62,3.85-3.09,0-2.15-1-3-3.77-3A22.21,22.21,0,0,0,236,135Z"/><path class="cls-1" d="M256.18,135h-3.91c-2.48,0-2.89.47-2.89,2.67v2.3h6.5v1.7h-6.5v2.59c0,2.21.41,2.67,2.89,2.67h3.91v1.66c-1.15,0-2.73.09-3.84.09-2.63,0-5.07-.14-5.07-3.5V136.7c0-3.36,2.44-3.51,5.07-3.51,1,0,2.67.05,3.84.1Z"/><path class="cls-1" d="M259.43,148.59V133.46a29.85,29.85,0,0,1,4.72-.38c3.26,0,6,.63,6,4.64,0,2.9-1.36,4.11-3.45,4.53l3.63,6.34h-2.47l-3.38-6.14h-.15c-.8,0-2.05-.06-2.77-.1v6.24Zm2.12-8a22.73,22.73,0,0,0,2.6.12c2.44,0,3.85-.62,3.85-3,0-2.12-1-3-3.77-3a20.12,20.12,0,0,0-2.68.19Z"/><path class="cls-1" d="M272.1,148.59l4.94-14a1.81,1.81,0,0,1,2.07-1.47,1.78,1.78,0,0,1,1.46,1.47l4.87,14h-2.25l-1.43-4.26H275.7l-1.37,4.26Zm9.1-5.92-2.48-7.41-2.47,7.41Z"/><path class="cls-1" d="M296.77,135h-4v13.62h-2.12V135h-4v-1.74h10.14Z"/><path class="cls-1" d="M299.21,133.23h2.12v15.36H299.2Z"/><path class="cls-1" d="M311.83,147.27c-.36,1-.88,1.48-1.66,1.48s-1.31-.43-1.67-1.48l-4.68-14h2.26l4.11,13,4.16-13h2.16Z"/><path class="cls-1" d="M317.75,148.59l4.94-14a1.81,1.81,0,0,1,2.07-1.47,1.78,1.78,0,0,1,1.46,1.47l4.87,14h-2.25l-1.43-4.26h-6.08l-1.42,4.26Zm9.1-5.92-2.52-7.41-2.47,7.41Z"/><path class="cls-1" d="M338.42,148.59l4.94-14a1.81,1.81,0,0,1,2.07-1.47,1.78,1.78,0,0,1,1.46,1.47l4.87,14h-2.25l-1.43-4.26H342l-1.42,4.26Zm9.1-5.92L345,135.26l-2.47,7.41Z"/><path class="cls-1" d="M354.27,133.23h2.13v15.36h-2.13Z"/><path class="cls-1" d="M368.78,148.55c-1.17,0-2.56.08-3.58.08-2.62,0-5.07-.14-5.07-3.5v-11.9h2.12v11c0,2.19.41,2.67,2.89,2.67h3.64Z"/><path class="cls-1" d="M370.62,140.91c0-5.56,1.31-7.83,5.93-7.83s5.92,2.27,5.92,7.83-1.31,7.84-5.92,7.84S370.62,146.48,370.62,140.91Zm9.7,0c0-3.57-.13-6.06-3.77-6.06s-3.77,2.49-3.77,6.06.11,6.07,3.77,6.07,3.78-2.5,3.78-6.07Z"/><path class="cls-1" d="M387.25,137c0,1.93,1,2.22,3.27,2.86,2.59.73,4.17,1.76,4.17,4.51,0,3.23-1.95,4.41-5.45,4.41a19.24,19.24,0,0,1-4-.39l.21-1.73a29.76,29.76,0,0,0,3.76.3c2,0,3.33-.43,3.33-2.51,0-1.82-1.32-2.24-3.09-2.78-2.7-.83-4.28-1.57-4.28-4.38,0-3.16,1.88-4.18,5.25-4.18a22.22,22.22,0,0,1,4,.38l-.19,1.69a21.4,21.4,0,0,0-3.11-.28C389.33,134.87,387.25,135.06,387.25,137Z"/><path class="cls-1" d="M164.27,106.18l-7.62-18.67c-.75-1.73-1.31-3-2.45-3s-1.71,1.32-2.4,3l-4.64,10.76-4.58-10.76c-.69-1.65-1.24-3-2.4-3s-1.7,1.24-2.46,3l-7.62,18.68a3.61,3.61,0,0,0,1.66,4.82,3.56,3.56,0,0,0,1.87.35H137v4.25a2.77,2.77,0,0,0,2.77,2.77h1a2.77,2.77,0,0,0,2.77-2.77v-2.08a.81.81,0,0,0,0-.22v-2h7.4v4.3a2.77,2.77,0,0,0,2.77,2.77h1a2.77,2.77,0,0,0,2.77-2.77v-4.25h3.35a3.6,3.6,0,0,0,3.53-5.18ZM144,109.29h-2.54v6.32a.7.7,0,0,1-.7.7h-1a.7.7,0,0,1-.7-.7v-6.32h-5.39A1.55,1.55,0,0,1,132,107l7.6-18.63c.11-.23.33-.74.54-1.18.15.3.32.69.52,1.16L146,100.92l-2,5.27A4.06,4.06,0,0,0,144,109.29Zm4.49-.69a1.52,1.52,0,0,1-2.11.41,1.6,1.6,0,0,1-.41-.41,1.86,1.86,0,0,1,0-1.66l1.26-3.23,1.3,3.24A1.81,1.81,0,0,1,148.45,108.6Zm13.86,0a1.81,1.81,0,0,1-1.57.65h-5.41v6.32a.7.7,0,0,1-.7.7h-1a.7.7,0,0,1-.7-.7v-6.28h-2.51a4,4,0,0,0,0-3.1l-2.12-5.27,5.43-12.61c.2-.48.37-.86.51-1.16.22.43.44.94.53,1.16l7.56,18.63a1.77,1.77,0,0,1,0,1.7Z"/><path class="cls-2" d="M168.33,120.4a28.83,28.83,0,0,1-21.18,9.22,19,19,0,0,1-2.62-.12,31.32,31.32,0,0,1-18.67-.8,31.26,31.26,0,0,0,56-19,28.28,28.28,0,0,0-.27-4.11A31.3,31.3,0,0,1,168.33,120.4Z"/><path class="cls-3" d="M152,72.2A29,29,0,0,1,173.15,88a31.14,31.14,0,0,1,8.5,17.6,31.26,31.26,0,0,0-47.32-37.42c.74,0,1.47-.07,2.22-.07A31,31,0,0,1,152,72.2Z"/><path class="cls-4" d="M176.1,100.71a28.75,28.75,0,0,1-7.77,19.69,31.25,31.25,0,0,0,13.32-14.84,31.14,31.14,0,0,0-8.5-17.6A28.77,28.77,0,0,1,176.1,100.71Z"/><path class="cls-5" d="M119.42,108.89a29.06,29.06,0,0,1,3.27-23.59,31.37,31.37,0,0,1,11.64-17.16,31.25,31.25,0,0,0-8.4,60.56,31.14,31.14,0,0,1-6.47-19A4.53,4.53,0,0,1,119.42,108.89Z"/><path class="cls-6" d="M144.55,129.5a29,29,0,0,1-25.13-20.61v.78a31.14,31.14,0,0,0,6.47,19,31.32,31.32,0,0,0,18.67.8Z"/><path class="cls-7" d="M122.69,85.3A29,29,0,0,1,152,72.2a31,31,0,0,0-15.54-4.14c-.75,0-1.48,0-2.22.07A31.34,31.34,0,0,0,122.69,85.3Z"/></svg>