<svg id="Layer_1" data-name="Layer 1" xmlns="http://www.w3.org/2000/svg" xmlns:xlink="http://www.w3.org/1999/xlink" viewBox="0 0 500 210.78"><defs><style>.cls-1{fill:#165c7d;}.cls-2{fill:url(#Gradiente_sem_nome);}.cls-3{fill:url(#Gradiente_sem_nome_2);}.cls-4{fill:#886b25;}.cls-5{fill:url(#Gradiente_sem_nome_3);}.cls-6{fill:#007d8a;}.cls-7{fill:#007041;}</style><linearGradient id="Gradiente_sem_nome" x1="105.44" y1="-394.39" x2="161.48" y2="-394.39" gradientTransform="matrix(1, 0, 0, -1, -20.12, -271.13)" gradientUnits="userSpaceOnUse"><stop offset="0" stop-color="#00a9ce"/><stop offset="0.41" stop-color="#00a7cb"/><stop offset="0.66" stop-color="#009fc3"/><stop offset="0.86" stop-color="#0091b5"/><stop offset="1" stop-color="#0083a6"/></linearGradient><linearGradient id="Gradiente_sem_nome_2" x1="113.84" y1="-354.92" x2="163.72" y2="-354.92" gradientTransform="matrix(1, 0, 0, -1, -20.12, -271.13)" gradientUnits="userSpaceOnUse"><stop offset="0" stop-color="#ffa300"/><stop offset="0.35" stop-color="#fca200"/><stop offset="0.56" stop-color="#f49d00"/><stop offset="0.73" stop-color="#e69600"/><stop offset="0.89" stop-color="#d28b00"/><stop offset="1" stop-color="#bd8000"/></linearGradient><linearGradient id="Gradiente_sem_nome_3" x1="84.82" y1="-369.55" x2="113.84" y2="-369.55" gradientTransform="matrix(1, 0, 0, -1, -20.12, -271.13)" gradientUnits="userSpaceOnUse"><stop offset="0" stop-color="#00b140"/><stop offset="0.39" stop-color="#00ae40"/><stop offset="0.62" stop-color="#01a63e"/><stop offset="0.82" stop-color="#02983b"/><stop offset="0.99" stop-color="#038437"/><stop offset="1" stop-color="#038237"/></linearGradient></defs><title>Prancheta 22</title><path class="cls-1" d="M178.06,120.43a42,42,0,0,1-10.31,1.18c-13.1,0-16.33-6.12-16.33-20.12s3.25-20.12,16.33-20.12a40.66,40.66,0,0,1,10.31,1.2l-.71,6.18a49.1,49.1,0,0,0-8.13-.68c-9.47,0-9.64,5.67-9.64,13.42s.13,13.39,9.64,13.39a51.21,51.21,0,0,0,8.11-.68Z"/><path class="cls-1" d="M191.72,121.21h-8V82.45a74.77,74.77,0,0,1,12.84-1.08c8.71,0,15.84,1.73,15.84,12.39,0,7-2.93,10.25-7.57,11.66l9,15.79h-9.21l-8.06-14.88c-1.61,0-3.43-.08-4.82-.17Zm0-21.41a44.07,44.07,0,0,0,4.87.2c5,0,7.89-1.27,7.89-6.28,0-4.36-2-6.1-7.72-6.1a38.05,38.05,0,0,0-5,.33Z"/><path class="cls-1" d="M243.66,88.17H232.78c-4.72,0-5.53,1-5.53,5.33V98h15.67v6.36H227.25v5.11c0,4.37.81,5.37,5.53,5.37h10.88V121c-2.77.14-8.07.31-10.71.31-7.12,0-13.69-.39-13.69-9.63V91.29c0-9.24,6.57-9.61,13.69-9.61,2.86,0,8,.15,10.71.28Z"/><path class="cls-1" d="M251,82.49a71.84,71.84,0,0,1,12.84-1.12c14.78,0,17.4,6.72,17.4,20.12s-2.66,20.12-17.4,20.12A76.83,76.83,0,0,1,251,120.53Zm8,5.7v26.6a27.58,27.58,0,0,0,3.74.29c10.39,0,10.48-5.89,10.48-13.59s-.09-13.61-10.48-13.61A26.08,26.08,0,0,0,259,88.19Z"/><path class="cls-1" d="M312.35,88.17H301.46c-4.72,0-5.53,1-5.53,5.33V98h15.63v6.36H295.93v5.11c0,4.37.81,5.37,5.53,5.37h10.89V121c-2.78.14-8.08.31-10.72.31-7.12,0-13.69-.39-13.69-9.63V91.29c0-9.24,6.57-9.61,13.69-9.61,2.86,0,8,.15,10.72.28Z"/><path class="cls-1" d="M343.36,121c-2.8.11-7.62.27-10.09.27-7.12,0-13.71-.43-13.71-9.63V81.78h8v27.66c0,4.39.8,5.37,5.52,5.37h10.28Z"/><path class="cls-1" d="M371.89,88.17H361c-4.72,0-5.53,1-5.53,5.33V98h15.67v6.36H355.48v5.11c0,4.37.81,5.37,5.53,5.37h10.88V121c-2.77.14-8.07.31-10.71.31-7.12,0-13.69-.39-13.69-9.63V91.29c0-9.24,6.57-9.61,13.69-9.61,2.86,0,8,.15,10.71.28Z"/><path class="cls-1" d="M385.56,92c0,4,2.71,4.51,7.24,5.72,7.55,2,10.8,5,10.8,12.1,0,8.7-5.3,11.83-14.64,11.83a53.8,53.8,0,0,1-11.38-1.22l.77-6.31a85.35,85.35,0,0,0,10.33.88c4.14,0,6.68-.93,6.68-4.89,0-3.67-2.89-4.5-6.55-5.62-7.07-2.16-11.23-4.35-11.23-11.79,0-8.55,5-11.29,14.11-11.29A55.44,55.44,0,0,1,403,82.61l-.72,6.14a55,55,0,0,0-8.69-.87C390.41,87.88,385.56,88,385.56,92Z"/><path class="cls-1" d="M435.3,120.43A41.57,41.57,0,0,1,425,121.61c-13.09,0-16.33-6.12-16.33-20.12S411.91,81.37,425,81.37a40.66,40.66,0,0,1,10.31,1.2l-.74,6.18a49.07,49.07,0,0,0-8.12-.68c-9.48,0-9.65,5.67-9.65,13.42s.17,13.39,9.68,13.39a51,51,0,0,0,8.1-.68Z"/><path class="cls-1" d="M161.14,148.39a17.42,17.42,0,0,1-3.61.38c-4.94,0-6.15-2.38-6.15-7.83s1.18-7.84,6.18-7.84a16.76,16.76,0,0,1,3.61.37l-.19,1.67a16.4,16.4,0,0,0-2.81-.24c-4.37,0-4.59,2.32-4.59,6s.26,6,4.59,6a18.69,18.69,0,0,0,2.81-.24Z"/><path class="cls-1" d="M163.44,140.94c0-5.57,1.31-7.84,5.92-7.84s5.93,2.27,5.93,7.84-1.31,7.83-5.93,7.83S163.44,146.5,163.44,140.94Zm9.69,0c0-3.58-.13-6.07-3.77-6.07s-3.8,2.49-3.8,6.07.12,6.06,3.77,6.06,3.8-2.5,3.8-6.06Z"/><path class="cls-1" d="M178.31,140.94c0-5.57,1.32-7.84,5.93-7.84s5.92,2.27,5.92,7.84-1.3,7.83-5.92,7.83S178.31,146.5,178.31,140.94Zm9.7,0c0-3.58-.13-6.07-3.77-6.07s-3.77,2.49-3.77,6.07.12,6.06,3.77,6.06S188,144.5,188,140.94Z"/><path class="cls-1" d="M195.68,148.62h-2.12V133.48a28.8,28.8,0,0,1,4.72-.38c3.28,0,6,.66,6,4.7s-2.38,4.8-5.78,4.8c-.8,0-2.06-.06-2.78-.09Zm0-7.85a25.34,25.34,0,0,0,2.61.13c2.46,0,3.85-.62,3.85-3.1,0-2.14-1-3-3.77-3a17.37,17.37,0,0,0-2.69.18Z"/><path class="cls-1" d="M215.86,135H212c-2.48,0-2.9.48-2.9,2.68v2.29h6.51v1.71h-6.51v2.58c0,2.21.42,2.67,2.9,2.67h3.91v1.66c-1.16.06-2.74.09-3.85.09-2.62,0-5.07-.13-5.07-3.5v-8.43c0-3.36,2.45-3.5,5.07-3.5,1,0,2.67,0,3.85.1Z"/><path class="cls-1" d="M219.11,148.62V133.48a28.8,28.8,0,0,1,4.72-.38c3.25,0,5.95.63,5.95,4.64,0,2.91-1.36,4.11-3.45,4.53l3.62,6.35h-2.47l-3.37-6.15H224c-.8,0-2.05-.06-2.77-.1v6.25Zm2.12-8a22.73,22.73,0,0,0,2.6.12c2.43,0,3.84-.62,3.84-3,0-2.12-1-2.94-3.77-2.94a18.43,18.43,0,0,0-2.67.18Z"/><path class="cls-1" d="M231.78,148.62l4.94-14a1.79,1.79,0,0,1,2.07-1.47,1.77,1.77,0,0,1,1.46,1.47l4.87,14h-2.25l-1.43-4.26h-6.07L234,148.62Zm9.1-5.92-2.48-7.41-2.47,7.41Z"/><path class="cls-1" d="M256.45,135h-4v13.63h-2.12V135h-4v-1.73h10.14Z"/><path class="cls-1" d="M258.89,133.26H261v15.36h-2.13Z"/><path class="cls-1" d="M271.5,147.3c-.35,1-.87,1.47-1.66,1.47s-1.31-.43-1.66-1.47l-4.68-14h2.26l4.11,13,4.16-13h2.16Z"/><path class="cls-1" d="M277.43,148.62l4.94-14a1.79,1.79,0,0,1,2.07-1.47,1.77,1.77,0,0,1,1.46,1.47l4.87,14h-2.21l-1.43-4.26h-6.07l-1.41,4.26Zm9.1-5.92-2.48-7.41-2.49,7.41Z"/><path class="cls-1" d="M298.1,148.62l4.94-14a1.79,1.79,0,0,1,2.07-1.47,1.77,1.77,0,0,1,1.46,1.47l4.87,14h-2.25l-1.43-4.26h-6.07l-1.41,4.26Zm9.1-5.92-2.48-7.41-2.47,7.41Z"/><path class="cls-1" d="M314,133.26h2.13v15.36H314Z"/><path class="cls-1" d="M328.46,148.58c-1.17,0-2.57.07-3.59.07-2.62,0-5.07-.13-5.07-3.5V133.26h2.13v11c0,2.2.41,2.67,2.88,2.67h3.65Z"/><path class="cls-1" d="M330.29,140.94c0-5.57,1.32-7.84,5.93-7.84s5.92,2.27,5.92,7.84-1.3,7.83-5.92,7.83S330.29,146.5,330.29,140.94Zm9.7,0c0-3.58-.13-6.07-3.77-6.07s-3.77,2.49-3.77,6.07.12,6.06,3.77,6.06,3.77-2.5,3.77-6.06Z"/><path class="cls-1" d="M346.93,137c0,1.94,1,2.22,3.27,2.86,2.59.73,4.17,1.76,4.17,4.51,0,3.23-2,4.41-5.45,4.41a19.24,19.24,0,0,1-4-.39l.21-1.73a29.76,29.76,0,0,0,3.76.3c2,0,3.33-.43,3.33-2.51,0-1.82-1.33-2.24-3.09-2.78-2.7-.82-4.28-1.57-4.28-4.38,0-3.15,1.88-4.18,5.24-4.18a20.55,20.55,0,0,1,4,.39l-.19,1.68a20.33,20.33,0,0,0-3.12-.28C349,134.88,346.93,135.07,346.93,137Z"/><path class="cls-1" d="M123.7,106.2l-7.62-18.67c-.75-1.72-1.31-3-2.45-3s-1.71,1.31-2.4,3L106.56,98.3,102,87.53c-.69-1.65-1.24-3-2.4-3s-1.7,1.24-2.46,3l-7.59,18.68A3.59,3.59,0,0,0,91.19,111a3.68,3.68,0,0,0,1.9.36h3.35v4.25a2.8,2.8,0,0,0,2.77,2.77h1a2.78,2.78,0,0,0,2.77-2.77v-2.08a.81.81,0,0,0,0-.22v-2h7.4v4.3a2.78,2.78,0,0,0,2.77,2.77h1a2.78,2.78,0,0,0,2.77-2.77v-4.25h3.36a3.6,3.6,0,0,0,3.89-3.27,3.51,3.51,0,0,0-.37-1.91Zm-20.31,3.12h-2.53v6.31a.7.7,0,0,1-.7.7h-1a.71.71,0,0,1-.7-.7v-6.31H93.07a1.56,1.56,0,0,1-1.81-1.25,1.58,1.58,0,0,1,.19-1.09l7.61-18.62c.1-.24.32-.75.54-1.18.14.29.31.68.51,1.16l5.36,12.6-2,5.27A4,4,0,0,0,103.39,109.32Zm4.5-.7a1.53,1.53,0,0,1-2.53,0,1.84,1.84,0,0,1,0-1.65l1.2-3.23,1.3,3.23A1.84,1.84,0,0,1,107.89,108.62Zm13.85,0a1.81,1.81,0,0,1-1.56.66h-5.42v6.31a.7.7,0,0,1-.7.7h-1a.71.71,0,0,1-.7-.7v-6.27h-2.51a4,4,0,0,0,0-3.11l-2.11-5.27,5.43-12.61c.19-.47.36-.86.51-1.15.21.43.43.93.53,1.16l7.6,18.63a1.78,1.78,0,0,1-.07,1.69Z"/><path class="cls-2" d="M127.79,120.42a28.88,28.88,0,0,1-21.18,9.23,19.15,19.15,0,0,1-2.63-.12,31.45,31.45,0,0,1-18.66-.8,31.25,31.25,0,0,0,55.76-23.15A31.33,31.33,0,0,1,127.79,120.42Z"/><path class="cls-3" d="M111.48,72.22A29,29,0,0,1,132.56,88a31,31,0,0,1,8.5,17.59A31.25,31.25,0,0,0,93.72,68.17c.73,0,1.47-.08,2.21-.08A31.06,31.06,0,0,1,111.48,72.22Z"/><path class="cls-4" d="M135.56,100.73a28.81,28.81,0,0,1-7.74,19.69,31.36,31.36,0,0,0,13.26-14.84A31,31,0,0,0,132.56,88,28.57,28.57,0,0,1,135.56,100.73Z"/><path class="cls-5" d="M78.86,108.88a29,29,0,0,1,3.26-23.59,31.28,31.28,0,0,1,11.6-17.15,31.25,31.25,0,0,0-8.4,60.56,31.18,31.18,0,0,1-6.47-19C78.85,109.43,78.85,109.17,78.86,108.88Z"/><path class="cls-6" d="M104,129.53a29,29,0,0,1-25.12-20.65v.78a31.18,31.18,0,0,0,6.47,19,31.45,31.45,0,0,0,18.66.8Z"/><path class="cls-7" d="M82.12,85.32a29,29,0,0,1,29.36-13.1,31.06,31.06,0,0,0-15.55-4.13,20.31,20.31,0,0,0-2.21.08A31.28,31.28,0,0,0,82.12,85.32Z"/></svg>