<svg id="Layer_1" data-name="Layer 1" xmlns="http://www.w3.org/2000/svg" xmlns:xlink="http://www.w3.org/1999/xlink" viewBox="0 0 500 210.78"><defs><style>.cls-1{fill:#165c7d;}.cls-2{fill:url(#Gradiente_sem_nome);}.cls-3{fill:url(#Gradiente_sem_nome_2);}.cls-4{fill:#886b25;}.cls-5{fill:url(#Gradiente_sem_nome_3);}.cls-6{fill:#007d8a;}.cls-7{fill:#007041;}</style><linearGradient id="Gradiente_sem_nome" x1="90.02" y1="67.17" x2="146.06" y2="67.17" gradientTransform="matrix(1, 0, 0, -1, -20.12, 190.43)" gradientUnits="userSpaceOnUse"><stop offset="0" stop-color="#00a9ce"/><stop offset="0.41" stop-color="#00a7cb"/><stop offset="0.66" stop-color="#009fc3"/><stop offset="0.86" stop-color="#0091b5"/><stop offset="1" stop-color="#0083a6"/></linearGradient><linearGradient id="Gradiente_sem_nome_2" x1="98.42" y1="106.64" x2="148.3" y2="106.64" gradientTransform="matrix(1, 0, 0, -1, -20.12, 190.43)" gradientUnits="userSpaceOnUse"><stop offset="0" stop-color="#ffa300"/><stop offset="0.35" stop-color="#fca200"/><stop offset="0.56" stop-color="#f49d00"/><stop offset="0.73" stop-color="#e69600"/><stop offset="0.89" stop-color="#d28b00"/><stop offset="1" stop-color="#bd8000"/></linearGradient><linearGradient id="Gradiente_sem_nome_3" x1="69.4" y1="92.01" x2="98.42" y2="92.01" gradientTransform="matrix(1, 0, 0, -1, -20.12, 190.43)" gradientUnits="userSpaceOnUse"><stop offset="0" stop-color="#00b140"/><stop offset="0.39" stop-color="#00ae40"/><stop offset="0.62" stop-color="#01a63e"/><stop offset="0.82" stop-color="#02983b"/><stop offset="0.99" stop-color="#038437"/><stop offset="1" stop-color="#038237"/></linearGradient></defs><title>Prancheta 19</title><path class="cls-1" d="M162.22,120.42a41.11,41.11,0,0,1-10.31,1.19c-13.1,0-16.33-6.13-16.33-20.12s3.25-20.12,16.33-20.12a40.66,40.66,0,0,1,10.31,1.2l-.72,6.18a49,49,0,0,0-8.12-.68c-9.47,0-9.64,5.67-9.64,13.42s.13,13.39,9.64,13.39a51.21,51.21,0,0,0,8.11-.68Z"/><path class="cls-1" d="M175.88,121.2h-8V82.45a74.57,74.57,0,0,1,12.83-1.08c8.71,0,15.84,1.72,15.84,12.39,0,7-2.93,10.25-7.57,11.65l9,15.79h-9.21l-8.09-14.87c-1.61,0-3.43-.09-4.82-.17Zm0-21.4a46.65,46.65,0,0,0,4.87.2c5,0,7.89-1.27,7.89-6.28,0-4.36-2-6.11-7.72-6.11a38.07,38.07,0,0,0-5,.34Z"/><path class="cls-1" d="M227.82,88.17H216.94c-4.72,0-5.53,1-5.53,5.33V98h15.66v6.36H211.41v5.11c0,4.37.81,5.37,5.53,5.37h10.88V121c-2.78.14-8.07.3-10.71.3-7.13,0-13.69-.39-13.69-9.62V91.28c0-9.24,6.56-9.61,13.69-9.61,2.86,0,8,.16,10.71.29Z"/><path class="cls-1" d="M235.14,82.49A71.84,71.84,0,0,1,248,81.37c14.78,0,17.4,6.72,17.4,20.12s-2.62,20.12-17.4,20.12a76.83,76.83,0,0,1-12.84-1.08Zm8,5.7v26.6a27.58,27.58,0,0,0,3.74.29c10.39,0,10.48-5.89,10.48-13.59s-.09-13.61-10.48-13.61A26.08,26.08,0,0,0,243.14,88.19Z"/><path class="cls-1" d="M272.26,81.78h8V121.2h-8Z"/><path class="cls-1" d="M313.69,120.42a41.11,41.11,0,0,1-10.31,1.19c-13.09,0-16.33-6.13-16.33-20.12s3.25-20.12,16.33-20.12a40.66,40.66,0,0,1,10.31,1.2L313,88.75a49,49,0,0,0-8.12-.68c-9.48,0-9.65,5.67-9.65,13.42s.14,13.39,9.65,13.39a51,51,0,0,0,8.1-.68Z"/><path class="cls-1" d="M318.27,101.49c0-14.28,3.5-20.12,15.77-20.12s15.75,5.84,15.75,20.12-3.5,20.12-15.75,20.12S318.27,115.77,318.27,101.49Zm23.4,0c0-8-.17-13.54-7.63-13.54s-7.65,5.5-7.65,13.54S326.56,115,334,115,341.67,109.53,341.67,101.49Z"/><path class="cls-1" d="M376,106l7.84-19.56c1.35-3.37,3.5-5.09,5.8-5.09,3.54,0,4.88,1.61,5.06,5.85l1.53,34H388.5L387.5,93h0l-7.07,19.32c-.9,2.46-2.32,3.68-4.38,3.68s-3.51-1.2-4.44-3.68L364.32,93h0l-.94,28.19H356l1.57-34c.19-4,1.59-5.82,5.06-5.82,2.29,0,4.33,1.49,5.7,5Z"/><path class="cls-1" d="M403.38,81.78h8V121.2h-8Z"/><path class="cls-1" d="M443.53,110.69V81.78h7.19V115.6c0,4.2-1.76,6-4.84,6s-4.77-1.27-6.8-5.2L426.57,92.18v29h-7.19V87.36c0-4.2,1.81-6,4.84-6,2.74,0,4.81,1.37,6.79,5.18Z"/><path class="cls-1" d="M145.3,148.39a17.42,17.42,0,0,1-3.61.38c-4.94,0-6.15-2.39-6.15-7.84s1.22-7.83,6.15-7.83a16.15,16.15,0,0,1,3.61.37l-.2,1.67a16.37,16.37,0,0,0-2.8-.24c-4.37,0-4.59,2.32-4.59,6s.26,6,4.59,6a18.69,18.69,0,0,0,2.81-.24Z"/><path class="cls-1" d="M147.6,140.93c0-5.56,1.31-7.83,5.92-7.83s5.93,2.27,5.93,7.83-1.31,7.84-5.93,7.84S147.6,146.5,147.6,140.93Zm9.69,0c0-3.57-.13-6.06-3.77-6.06s-3.77,2.49-3.77,6.06.12,6.07,3.77,6.07S157.29,144.5,157.29,140.93Z"/><path class="cls-1" d="M162.47,140.93c0-5.56,1.32-7.83,5.93-7.83s5.92,2.27,5.92,7.83-1.3,7.84-5.92,7.84S162.47,146.5,162.47,140.93Zm9.7,0c0-3.57-.13-6.06-3.77-6.06s-3.77,2.49-3.77,6.06.12,6.07,3.77,6.07,3.74-2.5,3.74-6.07Z"/><path class="cls-1" d="M179.84,148.61h-2.11V133.48a27.66,27.66,0,0,1,4.72-.38c3.28,0,6,.66,6,4.7s-2.38,4.79-5.78,4.79c-.8,0-2.06,0-2.78-.09Zm0-7.84a22.8,22.8,0,0,0,2.61.12c2.46,0,3.84-.62,3.84-3.09,0-2.15-1-3-3.77-3a20.09,20.09,0,0,0-2.68.17Z"/><path class="cls-1" d="M200,135h-3.88c-2.48,0-2.9.47-2.9,2.67v2.3h6.51v1.71h-6.51v2.58c0,2.21.42,2.67,2.9,2.67h3.91v1.66c-1.16,0-2.74.09-3.85.09-2.62,0-5.07-.14-5.07-3.5v-8.43c0-3.36,2.45-3.51,5.07-3.51,1,0,2.67,0,3.85.1Z"/><path class="cls-1" d="M203.26,148.61V133.48a27.66,27.66,0,0,1,4.72-.38c3.26,0,6,.63,6,4.64,0,2.9-1.36,4.11-3.45,4.53l3.62,6.34h-2.51l-3.37-6.14h-.13c-.8,0-2-.06-2.78-.1v6.24Zm2.12-8a22.73,22.73,0,0,0,2.6.12c2.44,0,3.85-.62,3.85-3,0-2.12-1-2.95-3.77-2.95a18.58,18.58,0,0,0-2.68.19Z"/><path class="cls-1" d="M215.94,148.61l4.94-14a1.79,1.79,0,0,1,2.07-1.47,1.77,1.77,0,0,1,1.46,1.47l4.87,14H227l-1.43-4.25h-6.07l-1.39,4.25Zm9.1-5.92-2.48-7.41-2.42,7.41Z"/><path class="cls-1" d="M240.6,135h-4v13.62h-2.12V135h-4v-1.74h10.14Z"/><path class="cls-1" d="M243.05,133.25h2.09v15.36H243Z"/><path class="cls-1" d="M255.66,147.29c-.35,1-.87,1.48-1.66,1.48s-1.31-.43-1.66-1.48l-4.68-14h2.26l4.11,13,4.16-13h2.16Z"/><path class="cls-1" d="M261.59,148.61l4.94-14a1.79,1.79,0,0,1,2.07-1.47,1.77,1.77,0,0,1,1.46,1.47l4.87,14h-2.25l-1.43-4.25h-6.11l-1.41,4.25Zm9.1-5.92-2.49-7.41-2.47,7.41Z"/><path class="cls-1" d="M282.26,148.61l4.94-14a1.79,1.79,0,0,1,2.07-1.47,1.77,1.77,0,0,1,1.46,1.47l4.87,14h-2.25l-1.43-4.25h-6.07l-1.41,4.25Zm9.1-5.92-2.49-7.41-2.47,7.41Z"/><path class="cls-1" d="M298.14,133.25h2.12v15.36h-2.12Z"/><path class="cls-1" d="M312.62,148.57c-1.17,0-2.57.08-3.59.08-2.62,0-5.07-.14-5.07-3.5v-11.9h2.18v11c0,2.19.41,2.67,2.88,2.67h3.65Z"/><path class="cls-1" d="M314.45,140.93c0-5.56,1.32-7.83,5.93-7.83s5.92,2.27,5.92,7.83-1.3,7.84-5.92,7.84S314.45,146.5,314.45,140.93Zm9.7,0c0-3.57-.13-6.06-3.77-6.06s-3.77,2.49-3.77,6.06.12,6.07,3.77,6.07,3.76-2.5,3.76-6.07Z"/><path class="cls-1" d="M331.14,137c0,1.93,1,2.22,3.27,2.86,2.59.73,4.17,1.76,4.17,4.51,0,3.23-2,4.41-5.46,4.41a19.24,19.24,0,0,1-4-.39l.21-1.73a29.76,29.76,0,0,0,3.76.3c2,0,3.33-.43,3.33-2.51,0-1.82-1.33-2.24-3.09-2.78-2.7-.83-4.28-1.57-4.28-4.38,0-3.16,1.88-4.18,5.24-4.18a20.55,20.55,0,0,1,4,.39l-.19,1.68a20.33,20.33,0,0,0-3.12-.28C333.14,134.88,331.14,135.07,331.14,137Z"/><path class="cls-1" d="M108.28,106.2l-7.62-18.67c-.75-1.72-1.31-3-2.45-3s-1.71,1.31-2.4,3L91.14,98.3,86.59,87.53c-.69-1.65-1.24-3-2.4-3s-1.7,1.24-2.46,3l-7.59,18.68A3.59,3.59,0,0,0,75.77,111a3.68,3.68,0,0,0,1.9.36H81v4.25a2.78,2.78,0,0,0,2.76,2.77h1a2.78,2.78,0,0,0,2.77-2.77v-2.08a.81.81,0,0,0,0-.22v-2H95v4.3a2.78,2.78,0,0,0,2.77,2.77h1a2.78,2.78,0,0,0,2.77-2.77v-4.25h3.36a3.6,3.6,0,0,0,3.89-3.27,3.51,3.51,0,0,0-.37-1.91ZM88,109.32H85.44v6.31a.7.7,0,0,1-.7.7h-1a.71.71,0,0,1-.7-.7v-6.31H77.65a1.86,1.86,0,0,1-1.57-.66,1.78,1.78,0,0,1,0-1.68l7.6-18.62c.1-.24.32-.75.54-1.18.14.29.31.68.51,1.16l5.36,12.6-2,5.27A4,4,0,0,0,88,109.32Zm4.5-.7a1.53,1.53,0,0,1-2.12.4,1.73,1.73,0,0,1-.41-.4,1.84,1.84,0,0,1,0-1.65l1.2-3.23,1.3,3.23A1.84,1.84,0,0,1,92.47,108.62Zm13.85,0a1.81,1.81,0,0,1-1.56.66H99.34v6.31a.7.7,0,0,1-.7.7h-1a.71.71,0,0,1-.7-.7v-6.27H94.43a4,4,0,0,0,0-3.11l-2.11-5.27,5.43-12.61c.19-.47.36-.86.51-1.15.21.43.43.93.53,1.16l7.6,18.63a1.75,1.75,0,0,1-.07,1.69Z"/><path class="cls-2" d="M112.37,120.42a28.88,28.88,0,0,1-21.18,9.23,19.15,19.15,0,0,1-2.63-.12,31.45,31.45,0,0,1-18.66-.8,31.25,31.25,0,0,0,55.76-23.15A31.33,31.33,0,0,1,112.37,120.42Z"/><path class="cls-3" d="M96.06,72.22A29,29,0,0,1,117.14,88a31,31,0,0,1,8.5,17.59A31.25,31.25,0,0,0,78.3,68.17c.73,0,1.47-.08,2.21-.08A31.06,31.06,0,0,1,96.06,72.22Z"/><path class="cls-4" d="M120.14,100.73a28.81,28.81,0,0,1-7.74,19.69,31.36,31.36,0,0,0,13.26-14.84A31,31,0,0,0,117.14,88,28.57,28.57,0,0,1,120.14,100.73Z"/><path class="cls-5" d="M63.44,108.88A29,29,0,0,1,66.7,85.29,31.28,31.28,0,0,1,78.3,68.14a31.25,31.25,0,0,0-8.4,60.56,31.18,31.18,0,0,1-6.47-19C63.43,109.43,63.43,109.17,63.44,108.88Z"/><path class="cls-6" d="M88.56,129.53a29,29,0,0,1-25.12-20.65v.78a31.18,31.18,0,0,0,6.47,19,31.45,31.45,0,0,0,18.66.8Z"/><path class="cls-7" d="M66.7,85.32a29,29,0,0,1,29.36-13.1,31.06,31.06,0,0,0-15.55-4.13,20.31,20.31,0,0,0-2.21.08A31.28,31.28,0,0,0,66.7,85.32Z"/></svg>