<svg id="Layer_1" data-name="Layer 1" xmlns="http://www.w3.org/2000/svg" xmlns:xlink="http://www.w3.org/1999/xlink" viewBox="0 0 500 210.78"><defs><style>.cls-1{fill:#165c7d;}.cls-2{fill:url(#Gradiente_sem_nome);}.cls-3{fill:url(#Gradiente_sem_nome_2);}.cls-4{fill:#886b25;}.cls-5{fill:url(#Gradiente_sem_nome_3);}.cls-6{fill:#007d8a;}.cls-7{fill:#007041;}</style><linearGradient id="Gradiente_sem_nome" x1="129.14" y1="528.98" x2="185.14" y2="528.98" gradientTransform="matrix(1, 0, 0, -1, -19.92, 652.19)" gradientUnits="userSpaceOnUse"><stop offset="0" stop-color="#00a9ce"/><stop offset="0.41" stop-color="#00a7cb"/><stop offset="0.66" stop-color="#009fc3"/><stop offset="0.86" stop-color="#0091b5"/><stop offset="1" stop-color="#0083a6"/></linearGradient><linearGradient id="Gradiente_sem_nome_2" x1="137.56" y1="568.41" x2="187.46" y2="568.41" gradientTransform="matrix(1, 0, 0, -1, -19.92, 652.19)" gradientUnits="userSpaceOnUse"><stop offset="0" stop-color="#ffa300"/><stop offset="0.35" stop-color="#fca200"/><stop offset="0.56" stop-color="#f49d00"/><stop offset="0.73" stop-color="#e69600"/><stop offset="0.89" stop-color="#d28b00"/><stop offset="1" stop-color="#bd8000"/></linearGradient><linearGradient id="Gradiente_sem_nome_3" x1="108.53" y1="553.78" x2="137.56" y2="553.78" gradientTransform="matrix(1, 0, 0, -1, -19.92, 652.19)" gradientUnits="userSpaceOnUse"><stop offset="0" stop-color="#00b140"/><stop offset="0.39" stop-color="#00ae40"/><stop offset="0.62" stop-color="#01a63e"/><stop offset="0.82" stop-color="#02983b"/><stop offset="0.99" stop-color="#038437"/><stop offset="1" stop-color="#038237"/></linearGradient></defs><title>logo_viacredi_space_pos</title><path class="cls-1" d="M198.81,116.26c-1.24,3.81-3.2,5.33-6.08,5.33s-4.81-1.4-6.09-5.33l-11.31-34.5h8.53l8.94,30.42,9-30.42H210Z"/><path class="cls-1" d="M214.53,81.76h8v39.43h-8Z"/><path class="cls-1" d="M227.08,121.19l11.73-34.34c1.32-3.86,3.45-5.5,6.48-5.5s5.16,1.75,6.43,5.5l11.52,34.34h-8.49l-3-9.77H238.28l-2.94,9.77Zm22.78-15.91L245,89.34l-4.82,15.94Z"/><path class="cls-1" d="M293.29,120.41A41.1,41.1,0,0,1,283,121.59c-13.1,0-16.33-6.12-16.33-20.12S269.9,81.35,283,81.35a41.59,41.59,0,0,1,10.31,1.2l-.71,6.18a51.36,51.36,0,0,0-8.13-.68c-9.47,0-9.64,5.67-9.64,13.42s.13,13.42,9.64,13.42a50,50,0,0,0,8.11-.67Z"/><path class="cls-1" d="M307,121.19h-8V82.44a74.69,74.69,0,0,1,12.84-1.09c8.72,0,15.84,1.73,15.84,12.39,0,7-2.93,10.25-7.56,11.66l9,15.79h-9.21l-8.09-14.88c-1.6,0-3.43-.08-4.82-.17Zm0-21.41a41.75,41.75,0,0,0,4.87.2c5,0,7.89-1.27,7.89-6.27,0-4.37-2-6.11-7.72-6.11a39.87,39.87,0,0,0-5,.34Z"/><path class="cls-1" d="M358.89,88.16H348c-4.72,0-5.53,1-5.53,5.33V98h15.67v6.37H342.48v5.11c0,4.36.81,5.36,5.53,5.36h10.88V121c-2.77.14-8.07.31-10.71.31-7.12,0-13.69-.39-13.69-9.63V91.27c0-9.24,6.57-9.61,13.69-9.61,2.86,0,8,.15,10.71.28Z"/><path class="cls-1" d="M366.21,82.47a73.74,73.74,0,0,1,12.84-1.12c14.78,0,17.4,6.72,17.4,20.12s-2.62,20.12-17.4,20.12a74.77,74.77,0,0,1-12.84-1.08Zm8,5.7v26.6a23.47,23.47,0,0,0,3.74.29c10.39,0,10.48-5.89,10.48-13.59S388.34,87.9,378,87.9A29.27,29.27,0,0,0,374.21,88.17Z"/><path class="cls-1" d="M403.33,81.76h8v39.43h-8Z"/><path class="cls-1" d="M185.15,148.37a16.25,16.25,0,0,1-3.62.39c-4.93,0-6.14-2.39-6.14-7.84s1.22-7.87,6.14-7.87a16.86,16.86,0,0,1,3.62.38l-.2,1.66a18.67,18.67,0,0,0-2.8-.24c-4.37,0-4.59,2.32-4.59,6s.26,6,4.59,6a16.4,16.4,0,0,0,2.81-.25Z"/><path class="cls-1" d="M187.44,140.92c0-5.57,1.32-7.84,5.93-7.84s5.92,2.27,5.92,7.84-1.3,7.84-5.92,7.84S187.44,146.48,187.44,140.92Zm9.7,0c0-3.57-.13-6.07-3.77-6.07s-3.77,2.5-3.77,6.07.12,6.06,3.77,6.06S197.14,144.48,197.14,140.92Z"/><path class="cls-1" d="M202.32,140.92c0-5.57,1.31-7.84,5.93-7.84s5.92,2.27,5.92,7.84-1.3,7.84-5.92,7.84S202.32,146.48,202.32,140.92Zm9.7,0c0-3.57-.13-6.07-3.77-6.07s-3.77,2.5-3.77,6.07.12,6.06,3.77,6.06S212,144.48,212,140.92Z"/><path class="cls-1" d="M219.69,148.6h-2.11V133.46a29.94,29.94,0,0,1,4.72-.38c3.28,0,5.95.67,5.95,4.7s-2.39,4.8-5.78,4.8c-.8,0-2.06,0-2.78-.09Zm0-7.85a20.74,20.74,0,0,0,2.61.13c2.46,0,3.84-.62,3.84-3.1,0-2.14-1-3-3.77-3a20.11,20.11,0,0,0-2.68.18Z"/><path class="cls-1" d="M239.87,135H236c-2.47,0-2.89.48-2.89,2.68v2.29h6.51v1.71h-6.51v2.58c0,2.21.42,2.67,2.89,2.67h3.92v1.66c-1.16.06-2.74.1-3.85.1-2.63,0-5.07-.14-5.07-3.5v-8.43c0-3.37,2.44-3.51,5.07-3.51,1,0,2.67,0,3.85.1Z"/><path class="cls-1" d="M243.11,148.6V133.46a29.94,29.94,0,0,1,4.72-.38c3.26,0,6,.63,6,4.64,0,2.91-1.36,4.11-3.45,4.54L254,148.6h-2.51l-3.37-6.15H248c-.8,0-2.06-.06-2.78-.1v6.25Zm2.12-8a22.73,22.73,0,0,0,2.6.12c2.44,0,3.85-.61,3.85-3,0-2.12-1-2.94-3.77-2.94a24.12,24.12,0,0,0-2.68.18Z"/><path class="cls-1" d="M255.79,148.6l4.94-14a1.81,1.81,0,0,1,2.07-1.47,1.78,1.78,0,0,1,1.46,1.47l4.86,14h-2.24l-1.43-4.26h-6.07L258,148.6Zm9.1-5.92-2.49-7.41-2.47,7.41Z"/><path class="cls-1" d="M280.45,135h-4V148.6h-2.13V135h-4v-1.73h10.14Z"/><path class="cls-1" d="M282.9,133.24H285V148.6H282.9Z"/><path class="cls-1" d="M295.51,147.28c-.35,1-.87,1.48-1.66,1.48s-1.31-.43-1.66-1.48l-4.68-14h2.25l4.12,13,4.16-13h2.16Z"/><path class="cls-1" d="M301.44,148.6l4.94-14a1.81,1.81,0,0,1,2.07-1.47,1.78,1.78,0,0,1,1.46,1.47l4.86,14h-2.24l-1.43-4.26H305l-1.42,4.26Zm9.1-5.92-2.49-7.41-2.47,7.41Z"/><path class="cls-1" d="M322.11,148.6l4.94-14a1.81,1.81,0,0,1,2.07-1.47,1.78,1.78,0,0,1,1.46,1.47l4.86,14H333.2l-1.43-4.26h-6.08l-1.42,4.26Zm9.1-5.92-2.52-7.41-2.47,7.41Z"/><path class="cls-1" d="M338,133.24h2.12V148.6H338Z"/><path class="cls-1" d="M352.47,148.56c-1.17,0-2.57.08-3.59.08-2.62,0-5.07-.14-5.07-3.5v-11.9h2.13v11c0,2.2.41,2.67,2.88,2.67h3.65Z"/><path class="cls-1" d="M354.3,140.92c0-5.57,1.32-7.84,5.93-7.84s5.92,2.27,5.92,7.84-1.3,7.84-5.92,7.84S354.3,146.48,354.3,140.92Zm9.7,0c0-3.57-.13-6.07-3.77-6.07s-3.77,2.5-3.77,6.07.12,6.06,3.77,6.06S364,144.48,364,140.92Z"/><path class="cls-1" d="M370.93,137c0,1.93,1,2.21,3.27,2.85,2.6.73,4.18,1.76,4.18,4.52,0,3.23-2,4.41-5.46,4.41a18.59,18.59,0,0,1-4-.4l.21-1.73a28,28,0,0,0,3.76.31c2,0,3.33-.44,3.33-2.52,0-1.82-1.33-2.24-3.09-2.78-2.7-.82-4.28-1.57-4.28-4.37,0-3.16,1.87-4.19,5.24-4.19a22.22,22.22,0,0,1,4,.39l-.2,1.68a21.4,21.4,0,0,0-3.11-.28C373,134.87,370.93,135.05,370.93,137Z"/><path class="cls-1" d="M147.63,106.17,140,87.5c-.75-1.73-1.31-3-2.45-3s-1.71,1.32-2.4,3l-4.64,10.76L125.94,87.5c-.69-1.65-1.24-3-2.4-3s-1.7,1.24-2.46,3l-7.62,18.68a3.61,3.61,0,0,0,1.66,4.82,3.56,3.56,0,0,0,1.87.35h3.36v4.25a2.77,2.77,0,0,0,2.77,2.77h1a2.77,2.77,0,0,0,2.77-2.77v-2.08a.81.81,0,0,0,0-.22v-2h7.4v4.3a2.77,2.77,0,0,0,2.77,2.77h1a2.77,2.77,0,0,0,2.77-2.77v-4.25h3.35a3.6,3.6,0,0,0,3.53-5.18Zm-20.31,3.11h-2.54v6.32a.7.7,0,0,1-.7.7h-1a.7.7,0,0,1-.7-.7v-6.32H117a1.55,1.55,0,0,1-1.61-2.33L123,88.32c.11-.23.33-.74.54-1.18.15.3.32.69.52,1.16l5.36,12.61-2.05,5.27A4.06,4.06,0,0,0,127.32,109.28Zm4.49-.69a1.52,1.52,0,0,1-2.11.41,1.6,1.6,0,0,1-.41-.41,1.86,1.86,0,0,1,0-1.66l1.26-3.23,1.3,3.24A1.81,1.81,0,0,1,131.81,108.59Zm13.86,0a1.81,1.81,0,0,1-1.57.65h-5.41v6.32a.7.7,0,0,1-.7.7h-1a.7.7,0,0,1-.7-.7v-6.28h-2.51a4,4,0,0,0,0-3.1l-2.12-5.27,5.43-12.61c.2-.48.37-.86.51-1.16.22.43.44.94.53,1.16l7.56,18.63a1.77,1.77,0,0,1,0,1.7Z"/><path class="cls-2" d="M151.69,120.39a28.83,28.83,0,0,1-21.18,9.22,19,19,0,0,1-2.62-.12,31.32,31.32,0,0,1-18.67-.8,31.26,31.26,0,0,0,56-19,28.28,28.28,0,0,0-.27-4.11A31.3,31.3,0,0,1,151.69,120.39Z"/><path class="cls-3" d="M135.4,72.19A29,29,0,0,1,156.51,88a31.17,31.17,0,0,1,8.5,17.6,31.26,31.26,0,0,0-47.32-37.42c.74,0,1.47-.07,2.22-.07A31,31,0,0,1,135.4,72.19Z"/><path class="cls-4" d="M159.46,100.7a28.75,28.75,0,0,1-7.77,19.69A31.25,31.25,0,0,0,165,105.55a31.17,31.17,0,0,0-8.5-17.6A28.77,28.77,0,0,1,159.46,100.7Z"/><path class="cls-5" d="M102.78,108.88a29.06,29.06,0,0,1,3.27-23.59,31.37,31.37,0,0,1,11.64-17.16,31.25,31.25,0,0,0-8.4,60.56,31.14,31.14,0,0,1-6.47-19A4.53,4.53,0,0,1,102.78,108.88Z"/><path class="cls-6" d="M127.91,129.49a29,29,0,0,1-25.13-20.61v.78a31.14,31.14,0,0,0,6.47,19,31.32,31.32,0,0,0,18.67.8Z"/><path class="cls-7" d="M106.05,85.29a29,29,0,0,1,29.35-13.1,31,31,0,0,0-15.54-4.14c-.75,0-1.48,0-2.22.07A31.34,31.34,0,0,0,106.05,85.29Z"/></svg>