<svg id="Layer_1" data-name="Layer 1" xmlns="http://www.w3.org/2000/svg" xmlns:xlink="http://www.w3.org/1999/xlink" viewBox="0 0 500 210.78"><defs><style>.cls-1{fill:#165c7d;}.cls-2{fill:url(#Gradiente_sem_nome);}.cls-3{fill:url(#Gradiente_sem_nome_2);}.cls-4{fill:#886b25;}.cls-5{fill:url(#Gradiente_sem_nome_3);}.cls-6{fill:#007d8a;}.cls-7{fill:#007041;}</style><linearGradient id="Gradiente_sem_nome" x1="113.31" y1="-394.05" x2="169.31" y2="-394.05" gradientTransform="matrix(1, 0, 0, -1, -19.92, -270.93)" gradientUnits="userSpaceOnUse"><stop offset="0" stop-color="#00a9ce"/><stop offset="0.41" stop-color="#00a7cb"/><stop offset="0.66" stop-color="#009fc3"/><stop offset="0.86" stop-color="#0091b5"/><stop offset="1" stop-color="#0083a6"/></linearGradient><linearGradient id="Gradiente_sem_nome_2" x1="121.73" y1="-354.62" x2="171.63" y2="-354.62" gradientTransform="matrix(1, 0, 0, -1, -19.92, -270.93)" gradientUnits="userSpaceOnUse"><stop offset="0" stop-color="#ffa300"/><stop offset="0.35" stop-color="#fca200"/><stop offset="0.56" stop-color="#f49d00"/><stop offset="0.73" stop-color="#e69600"/><stop offset="0.89" stop-color="#d28b00"/><stop offset="1" stop-color="#bd8000"/></linearGradient><linearGradient id="Gradiente_sem_nome_3" x1="92.7" y1="-369.25" x2="121.73" y2="-369.25" gradientTransform="matrix(1, 0, 0, -1, -19.92, -270.93)" gradientUnits="userSpaceOnUse"><stop offset="0" stop-color="#00b140"/><stop offset="0.39" stop-color="#00ae40"/><stop offset="0.62" stop-color="#01a63e"/><stop offset="0.82" stop-color="#02983b"/><stop offset="0.99" stop-color="#038437"/><stop offset="1" stop-color="#038237"/></linearGradient></defs><title>Prancheta 24</title><path class="cls-1" d="M185.94,120.51a41.1,41.1,0,0,1-10.31,1.18c-13.1,0-16.33-6.12-16.33-20.12s3.25-20.12,16.33-20.12a41.59,41.59,0,0,1,10.31,1.2l-.71,6.18a51.36,51.36,0,0,0-8.13-.68c-9.47,0-9.64,5.67-9.64,13.42S167.59,115,177.1,115a49,49,0,0,0,8.11-.68Z"/><path class="cls-1" d="M199.6,121.29h-8V82.53a76.62,76.62,0,0,1,12.83-1.08c8.72,0,15.84,1.73,15.84,12.39,0,7-2.93,10.25-7.56,11.66l9,15.79H212.5l-8.09-14.88c-1.6,0-3.43-.08-4.82-.17Zm0-21.41a41.75,41.75,0,0,0,4.87.2c5,0,7.89-1.27,7.89-6.28,0-4.36-2-6.1-7.72-6.1a41.84,41.84,0,0,0-5,.33Z"/><path class="cls-1" d="M251.54,88.25H240.66c-4.72,0-5.53,1-5.53,5.33v4.47H250.8v6.36H235.13v5.12c0,4.36.81,5.36,5.53,5.36h10.88v6.19c-2.77.14-8.07.31-10.71.31-7.12,0-13.69-.39-13.69-9.63V91.37c0-9.24,6.57-9.61,13.69-9.61,2.86,0,8,.15,10.71.28Z"/><path class="cls-1" d="M258.86,82.57a73.74,73.74,0,0,1,12.84-1.12c14.78,0,17.4,6.72,17.4,20.12s-2.62,20.12-17.4,20.12a74.77,74.77,0,0,1-12.84-1.08Zm8,5.7v26.6a23.59,23.59,0,0,0,3.75.29c10.38,0,10.47-5.89,10.47-13.59S281,88,270.61,88A27.89,27.89,0,0,0,266.86,88.27Z"/><path class="cls-1" d="M321.5,120.51a41.57,41.57,0,0,1-10.31,1.18c-13.1,0-16.33-6.12-16.33-20.12s3.25-20.12,16.33-20.12a41.59,41.59,0,0,1,10.31,1.2l-.71,6.18a51.36,51.36,0,0,0-8.13-.68c-9.47,0-9.64,5.67-9.64,13.42s.13,13.39,9.64,13.39a49,49,0,0,0,8.11-.68Z"/><path class="cls-1" d="M335.16,121.29h-8V82.53A76.62,76.62,0,0,1,340,81.45c8.71,0,15.84,1.73,15.84,12.39,0,7-2.93,10.25-7.56,11.66l9,15.79h-9.21L340,106.41c-1.6,0-3.43-.08-4.82-.17Zm0-21.41a41.75,41.75,0,0,0,4.87.2c5,0,7.89-1.27,7.89-6.28,0-4.36-2-6.1-7.72-6.1a41.84,41.84,0,0,0-5,.33Z"/><path class="cls-1" d="M387.1,88.25H376.22c-4.72,0-5.53,1-5.53,5.33v4.47h15.67v6.36H370.69v5.12c0,4.36.81,5.36,5.53,5.36H387.1v6.19c-2.77.14-8.07.31-10.71.31-7.12,0-13.69-.39-13.69-9.63V91.37c0-9.24,6.57-9.61,13.69-9.61,2.86,0,8,.15,10.71.28Z"/><path class="cls-1" d="M391,121.29,402.73,87c1.32-3.86,3.45-5.5,6.48-5.5s5.16,1.74,6.43,5.5l11.52,34.33h-8.49l-3-9.77H402.2l-2.94,9.77Zm22.78-15.91-4.92-15.94L404,105.38Z"/><path class="cls-1" d="M169,148.47a16.16,16.16,0,0,1-3.61.38c-4.94,0-6.15-2.38-6.15-7.83s1.22-7.84,6.15-7.84a17.41,17.41,0,0,1,3.61.37l-.16,1.67a18.67,18.67,0,0,0-2.8-.24c-4.38,0-4.6,2.32-4.6,6s.26,6,4.6,6a16.37,16.37,0,0,0,2.8-.24Z"/><path class="cls-1" d="M171.32,141c0-5.57,1.31-7.84,5.93-7.84s5.92,2.27,5.92,7.84-1.31,7.83-5.92,7.83S171.32,146.58,171.32,141Zm9.7,0c0-3.58-.13-6.07-3.77-6.07s-3.77,2.49-3.77,6.07.11,6.06,3.77,6.06S181,144.58,181,141Z"/><path class="cls-1" d="M186.2,141c0-5.57,1.31-7.84,5.92-7.84s5.93,2.27,5.93,7.84-1.31,7.83-5.93,7.83S186.2,146.58,186.2,141Zm9.69,0c0-3.58-.13-6.07-3.77-6.07s-3.77,2.49-3.77,6.07.12,6.06,3.77,6.06,3.74-2.5,3.74-6.06Z"/><path class="cls-1" d="M203.56,148.7h-2.11V133.56a29.94,29.94,0,0,1,4.72-.38c3.28,0,6,.66,6,4.7s-2.38,4.8-5.78,4.8c-.79,0-2.06-.06-2.78-.09Zm0-7.85a20.74,20.74,0,0,0,2.61.13c2.46,0,3.85-.62,3.85-3.1,0-2.14-1-3-3.77-3a20.26,20.26,0,0,0-2.69.18Z"/><path class="cls-1" d="M223.74,135.05h-3.88c-2.48,0-2.89.48-2.89,2.68V140h6.5v1.71H217v2.58c0,2.21.41,2.67,2.89,2.67h3.91v1.66c-1.15.06-2.73.09-3.85.09-2.62,0-5.07-.13-5.07-3.5V136.8c0-3.36,2.45-3.5,5.07-3.5,1,0,2.68,0,3.85.1Z"/><path class="cls-1" d="M227,148.7V133.56a29.94,29.94,0,0,1,4.72-.38c3.25,0,6,.63,6,4.64,0,2.91-1.36,4.11-3.45,4.53l3.63,6.35h-2.47L232,142.55h-.18c-.8,0-2.05-.06-2.77-.1v6.25Zm2.12-8a22.73,22.73,0,0,0,2.6.12c2.43,0,3.84-.62,3.84-3,0-2.12-1-2.94-3.77-2.94a23.94,23.94,0,0,0-2.67.18Z"/><path class="cls-1" d="M239.66,148.7l4.94-14a1.81,1.81,0,0,1,2.07-1.47,1.78,1.78,0,0,1,1.46,1.47l4.87,14h-2.25l-1.43-4.26h-6.06l-1.4,4.26Zm9.1-5.92-2.48-7.41-2.42,7.41Z"/><path class="cls-1" d="M264.33,135.07h-4V148.7h-2.12V135.07h-4v-1.73h10.14Z"/><path class="cls-1" d="M266.77,133.34h2.09V148.7h-2.13Z"/><path class="cls-1" d="M279.38,147.38c-.35,1-.87,1.47-1.65,1.47s-1.32-.42-1.67-1.47l-4.68-14h2.26l4.11,13,4.16-13h2.16Z"/><path class="cls-1" d="M285.31,148.7l4.94-14a1.81,1.81,0,0,1,2.07-1.47,1.78,1.78,0,0,1,1.46,1.47l4.87,14H296.4L295,144.44h-6.11l-1.41,4.26Zm9.1-5.92-2.48-7.41-2.47,7.41Z"/><path class="cls-1" d="M306,148.7l4.94-14a1.81,1.81,0,0,1,2.07-1.47,1.78,1.78,0,0,1,1.46,1.47l4.87,14h-2.25l-1.43-4.26h-6.07l-1.41,4.26Zm9.1-5.92-2.48-7.41-2.47,7.41Z"/><path class="cls-1" d="M321.86,133.34H324V148.7h-2.13Z"/><path class="cls-1" d="M336.34,148.66c-1.17,0-2.56.07-3.59.07-2.61,0-5.07-.13-5.07-3.5V133.34h2.18v11c0,2.2.41,2.67,2.89,2.67h3.64Z"/><path class="cls-1" d="M338.18,141c0-5.57,1.31-7.84,5.93-7.84S350,135.45,350,141s-1.31,7.83-5.92,7.83S338.18,146.58,338.18,141Zm9.69,0c0-3.58-.13-6.07-3.76-6.07s-3.78,2.49-3.78,6.07.12,6.06,3.78,6.06,3.75-2.5,3.75-6.06Z"/><path class="cls-1" d="M354.86,137.07c0,1.94,1,2.22,3.27,2.86,2.59.73,4.17,1.76,4.17,4.51,0,3.23-2,4.41-5.45,4.41a19.24,19.24,0,0,1-4-.39l.21-1.73a28,28,0,0,0,3.76.31c2,0,3.33-.44,3.33-2.52,0-1.82-1.32-2.24-3.09-2.78-2.7-.82-4.28-1.57-4.28-4.37,0-3.16,1.88-4.19,5.25-4.19a22.22,22.22,0,0,1,4,.39l-.19,1.68a21.66,21.66,0,0,0-3.12-.28C356.86,135,354.86,135.15,354.86,137.07Z"/><path class="cls-1" d="M131.8,106.08l-7.62-18.67c-.75-1.73-1.31-3-2.45-3s-1.71,1.32-2.4,3l-4.64,10.76-4.58-10.76c-.69-1.65-1.24-3-2.4-3s-1.7,1.24-2.46,3l-7.62,18.68a3.61,3.61,0,0,0,1.66,4.82,3.56,3.56,0,0,0,1.87.35h3.36v4.25a2.77,2.77,0,0,0,2.77,2.77h1a2.77,2.77,0,0,0,2.77-2.77v-2.08a.81.81,0,0,0,0-.22v-2h7.4v4.3a2.77,2.77,0,0,0,2.77,2.77h1a2.77,2.77,0,0,0,2.77-2.77v-4.25h3.35a3.6,3.6,0,0,0,3.53-5.18Zm-20.31,3.11H109v6.32a.7.7,0,0,1-.7.7h-1a.7.7,0,0,1-.7-.7v-6.32h-5.39a1.55,1.55,0,0,1-1.61-2.33l7.6-18.63c.11-.23.33-.74.54-1.18.15.3.32.69.52,1.16l5.36,12.61-2,5.27A4.06,4.06,0,0,0,111.49,109.19Zm4.49-.69a1.52,1.52,0,0,1-2.11.41,1.6,1.6,0,0,1-.41-.41,1.86,1.86,0,0,1,0-1.66l1.26-3.23,1.3,3.24A1.81,1.81,0,0,1,116,108.5Zm13.86,0a1.81,1.81,0,0,1-1.57.65h-5.41v6.32a.7.7,0,0,1-.7.7h-1a.7.7,0,0,1-.7-.7v-6.28H118a4,4,0,0,0,0-3.1l-2.12-5.27,5.43-12.61c.2-.48.37-.86.51-1.16.22.43.44.94.53,1.16l7.56,18.63a1.77,1.77,0,0,1,0,1.7Z"/><path class="cls-2" d="M135.86,120.3a28.83,28.83,0,0,1-21.18,9.22,19,19,0,0,1-2.62-.12,31.32,31.32,0,0,1-18.67-.8,31.26,31.26,0,0,0,56-19,28.28,28.28,0,0,0-.27-4.11A31.3,31.3,0,0,1,135.86,120.3Z"/><path class="cls-3" d="M119.57,72.1a29,29,0,0,1,21.11,15.76,31.14,31.14,0,0,1,8.5,17.6A31.26,31.26,0,0,0,101.86,68c.74,0,1.47-.07,2.22-.07A31,31,0,0,1,119.57,72.1Z"/><path class="cls-4" d="M143.63,100.61a28.75,28.75,0,0,1-7.77,19.69,31.25,31.25,0,0,0,13.32-14.84,31.14,31.14,0,0,0-8.5-17.6A28.77,28.77,0,0,1,143.63,100.61Z"/><path class="cls-5" d="M87,108.79A29.06,29.06,0,0,1,90.22,85.2,31.37,31.37,0,0,1,101.86,68a31.25,31.25,0,0,0-8.4,60.56,31.14,31.14,0,0,1-6.47-19A4.53,4.53,0,0,1,87,108.79Z"/><path class="cls-6" d="M112.08,129.4A29,29,0,0,1,87,108.79v.78a31.14,31.14,0,0,0,6.47,19,31.32,31.32,0,0,0,18.67.8Z"/><path class="cls-7" d="M90.22,85.2a29,29,0,0,1,29.35-13.1A31,31,0,0,0,104,68c-.75,0-1.48,0-2.22.07A31.34,31.34,0,0,0,90.22,85.2Z"/></svg>