<svg id="Layer_1" data-name="Layer 1" xmlns="http://www.w3.org/2000/svg" xmlns:xlink="http://www.w3.org/1999/xlink" viewBox="0 0 500 210.78"><defs><style>.cls-1{fill:#165c7d;}.cls-2{fill:url(#Gradiente_sem_nome);}.cls-3{fill:url(#Gradiente_sem_nome_2);}.cls-4{fill:#886b25;}.cls-5{fill:url(#Gradiente_sem_nome_3);}.cls-6{fill:#007d8a;}.cls-7{fill:#007041;}</style><linearGradient id="Gradiente_sem_nome" x1="59.47" y1="528.97" x2="115.47" y2="528.97" gradientTransform="matrix(1, 0, 0, -1, -19.92, 652.19)" gradientUnits="userSpaceOnUse"><stop offset="0" stop-color="#00a9ce"/><stop offset="0.41" stop-color="#00a7cb"/><stop offset="0.66" stop-color="#009fc3"/><stop offset="0.86" stop-color="#0091b5"/><stop offset="1" stop-color="#0083a6"/></linearGradient><linearGradient id="Gradiente_sem_nome_2" x1="67.89" y1="568.4" x2="117.79" y2="568.4" gradientTransform="matrix(1, 0, 0, -1, -19.92, 652.19)" gradientUnits="userSpaceOnUse"><stop offset="0" stop-color="#ffa300"/><stop offset="0.35" stop-color="#fca200"/><stop offset="0.56" stop-color="#f49d00"/><stop offset="0.73" stop-color="#e69600"/><stop offset="0.89" stop-color="#d28b00"/><stop offset="1" stop-color="#bd8000"/></linearGradient><linearGradient id="Gradiente_sem_nome_3" x1="38.86" y1="553.77" x2="67.89" y2="553.77" gradientTransform="matrix(1, 0, 0, -1, -19.92, 652.19)" gradientUnits="userSpaceOnUse"><stop offset="0" stop-color="#00b140"/><stop offset="0.39" stop-color="#00ae40"/><stop offset="0.62" stop-color="#01a63e"/><stop offset="0.82" stop-color="#02983b"/><stop offset="0.99" stop-color="#038437"/><stop offset="1" stop-color="#038237"/></linearGradient></defs><title>logo_transpocred_space_pos</title><path class="cls-1" d="M133,88.22h-9.7v33h-8v-33h-9.64V81.75H133Z"/><path class="cls-1" d="M145.75,121.18h-8V82.43a76.59,76.59,0,0,1,12.82-1.08c8.72,0,15.84,1.73,15.84,12.39,0,7-2.92,10.25-7.56,11.66l9,15.78h-9.2l-8.09-14.87c-1.61,0-3.44-.09-4.83-.17Zm0-21.4a42,42,0,0,0,4.88.2c5,0,7.88-1.27,7.88-6.28,0-4.36-2-6.11-7.71-6.11a40.79,40.79,0,0,0-5.05.34Z"/><path class="cls-1" d="M170.08,121.18l11.73-34.33c1.32-3.86,3.45-5.5,6.48-5.5s5.16,1.74,6.43,5.5l11.52,34.33h-8.49l-3-9.76H181.28l-2.94,9.76Zm22.78-15.9L188,89.34l-4.82,15.94Z"/><path class="cls-1" d="M235,110.67V81.75h7.19v33.83c0,4.2-1.76,6-4.84,6s-4.77-1.27-6.8-5.2L218,92.16v29h-7.19V87.34c0-4.2,1.81-6,4.84-6,2.74,0,4.81,1.37,6.79,5.18Z"/><path class="cls-1" d="M256.58,91.94c0,4,2.71,4.5,7.24,5.72,7.55,2,10.8,5,10.8,12.1,0,8.7-5.3,11.83-14.64,11.83a52.62,52.62,0,0,1-11.39-1.22l.78-6.31a83.37,83.37,0,0,0,10.33.88c4.14,0,6.68-.93,6.68-4.89,0-3.67-2.89-4.5-6.55-5.62-7.07-2.17-11.24-4.35-11.24-11.79,0-8.55,5-11.29,14.12-11.29A58,58,0,0,1,274,82.58l-.72,6.15a57.24,57.24,0,0,0-8.68-.87C261.4,87.86,256.58,88,256.58,91.94Z"/><path class="cls-1" d="M288.82,121.18h-8V82.43a76.59,76.59,0,0,1,12.82-1.08c8.79,0,15.84,1.74,15.84,12.52,0,10.48-6.36,12.74-15.41,12.74-1.73,0-3.74-.08-5.27-.18Zm0-21.08a39.76,39.76,0,0,0,4.88.22c5,0,7.87-1.3,7.87-6.45,0-4.48-1.88-6.26-7.7-6.26a40.79,40.79,0,0,0-5.05.34Z"/><path class="cls-1" d="M314,101.47c0-14.28,3.5-20.12,15.77-20.12s15.75,5.84,15.75,20.12-3.45,20.12-15.75,20.12S314,115.75,314,101.47Zm23.4,0c0-8-.17-13.54-7.63-13.54s-7.65,5.5-7.65,13.54.17,13.52,7.65,13.52S337.35,109.51,337.35,101.47Z"/><path class="cls-1" d="M377.83,120.41a41.08,41.08,0,0,1-10.3,1.18c-13.1,0-16.33-6.13-16.33-20.12s3.25-20.12,16.33-20.12a41.51,41.51,0,0,1,10.3,1.2l-.71,6.18a49.83,49.83,0,0,0-8.1-.67c-9.48,0-9.64,5.67-9.64,13.42s.13,13.42,9.64,13.42a50.06,50.06,0,0,0,8.11-.68Z"/><path class="cls-1" d="M391.5,121.18h-8V82.43a76.62,76.62,0,0,1,12.83-1.08c8.71,0,15.84,1.73,15.84,12.39,0,7-2.93,10.25-7.57,11.66l9,15.78h-9.2l-8.08-14.87c-1.61,0-3.44-.09-4.82-.17Zm0-21.4a41.75,41.75,0,0,0,4.87.2c5,0,7.89-1.27,7.89-6.28,0-4.36-2-6.11-7.72-6.11a39.87,39.87,0,0,0-5,.34Z"/><path class="cls-1" d="M443.44,88.15H432.56c-4.72,0-5.54,1-5.54,5.33V98h15.67v6.36H427v5.11c0,4.37.82,5.37,5.54,5.37h10.88V121c-2.78.14-8.07.31-10.71.31-7.13,0-13.69-.39-13.69-9.63V91.27c0-9.24,6.56-9.62,13.69-9.62,2.86,0,8,.16,10.71.29Z"/><path class="cls-1" d="M450.76,82.47a72.78,72.78,0,0,1,12.84-1.12c14.77,0,17.4,6.72,17.4,20.12s-2.63,20.12-17.4,20.12a74.77,74.77,0,0,1-12.84-1.08Zm8,5.7v26.6a24.7,24.7,0,0,0,3.74.29c10.39,0,10.52-5.89,10.52-13.59s-.09-13.57-10.48-13.57A26.7,26.7,0,0,0,458.76,88.17Z"/><path class="cls-1" d="M115.41,148.37a16.25,16.25,0,0,1-3.62.38c-4.93,0-6.14-2.38-6.14-7.84s1.21-7.85,6.14-7.85a16.91,16.91,0,0,1,3.62.37l-.2,1.67a18.67,18.67,0,0,0-2.8-.24c-4.38,0-4.6,2.32-4.6,6s.26,6,4.6,6a18.69,18.69,0,0,0,2.81-.24Z"/><path class="cls-1" d="M117.7,140.91c0-5.56,1.32-7.83,5.93-7.83s5.92,2.27,5.92,7.83-1.3,7.84-5.92,7.84S117.7,146.48,117.7,140.91Zm9.7,0c0-3.57-.13-6.06-3.77-6.06s-3.77,2.49-3.77,6.06S120,147,123.63,147,127.4,144.48,127.4,140.91Z"/><path class="cls-1" d="M132.58,140.91c0-5.56,1.31-7.83,5.93-7.83s5.92,2.27,5.92,7.83-1.31,7.84-5.92,7.84S132.58,146.48,132.58,140.91Zm9.7,0c0-3.57-.13-6.06-3.77-6.06s-3.77,2.49-3.77,6.06.12,6.07,3.77,6.07S142.28,144.48,142.28,140.91Z"/><path class="cls-1" d="M150,148.59h-2.12V133.46a29.85,29.85,0,0,1,4.72-.38c3.29,0,6,.66,6,4.7s-2.39,4.8-5.78,4.8c-.8,0-2.06-.06-2.78-.1Zm0-7.84a22.73,22.73,0,0,0,2.6.12c2.47,0,3.85-.62,3.85-3.09,0-2.15-1-3-3.77-3A21.92,21.92,0,0,0,150,135Z"/><path class="cls-1" d="M170.13,135h-3.92c-2.47,0-2.89.47-2.89,2.67v2.3h6.51v1.71h-6.51v2.58c0,2.21.42,2.67,2.89,2.67h3.92v1.66c-1.16,0-2.74.09-3.85.09-2.63,0-5.07-.13-5.07-3.5V136.7c0-3.36,2.44-3.5,5.07-3.5,1,0,2.67,0,3.85.09Z"/><path class="cls-1" d="M173.37,148.59V133.46a29.85,29.85,0,0,1,4.72-.38c3.26,0,6,.63,6,4.64,0,2.9-1.36,4.11-3.46,4.53l3.63,6.34h-2.47l-3.37-6.14h-.11c-.8,0-2.06-.06-2.78-.1v6.24Zm2.12-8a22.73,22.73,0,0,0,2.6.12c2.44,0,3.85-.62,3.85-3,0-2.12-1-3-3.77-3a20.12,20.12,0,0,0-2.68.19Z"/><path class="cls-1" d="M186,148.59l4.94-14a1.79,1.79,0,0,1,2.09-1.43,1.77,1.77,0,0,1,1.43,1.43l4.87,14H197.1l-1.43-4.25h-6.06l-1.42,4.25Zm9.1-5.92-2.49-7.4-2.47,7.4Z"/><path class="cls-1" d="M210.71,135h-4v13.62h-2.13V135h-4v-1.74h10.14Z"/><path class="cls-1" d="M213.16,133.23h2.12v15.36h-2.12Z"/><path class="cls-1" d="M225.77,147.28c-.35,1-.87,1.47-1.66,1.47s-1.31-.43-1.66-1.47l-4.68-14H220l4.12,13,4.16-13h2.16Z"/><path class="cls-1" d="M231.69,148.59l4.94-14a1.84,1.84,0,0,1,1.77-1.53,1.81,1.81,0,0,1,1.76,1.47l4.87,14h-2.25l-1.43-4.25h-6.06l-1.42,4.25Zm9.11-5.92-2.49-7.4-2.47,7.4Z"/><path class="cls-1" d="M252.36,148.59l4.94-14a1.81,1.81,0,0,1,2.07-1.47,1.78,1.78,0,0,1,1.46,1.47l4.87,14h-2.25L262,144.34H256l-1.42,4.25Zm9.11-5.92-2.45-7.4-2.47,7.4Z"/><path class="cls-1" d="M268.22,133.23h2.12v15.36h-2.12Z"/><path class="cls-1" d="M282.73,148.55c-1.17,0-2.57.08-3.59.08-2.62,0-5.07-.13-5.07-3.5v-11.9h2.12v11c0,2.2.41,2.67,2.89,2.67h3.65Z"/><path class="cls-1" d="M284.56,140.91c0-5.56,1.31-7.83,5.93-7.83s5.92,2.27,5.92,7.83-1.31,7.84-5.92,7.84S284.56,146.48,284.56,140.91Zm9.7,0c0-3.57-.13-6.06-3.77-6.06s-3.77,2.49-3.77,6.06.12,6.07,3.77,6.07,3.77-2.5,3.77-6.07Z"/><path class="cls-1" d="M301.19,137c0,1.93,1,2.22,3.27,2.86,2.6.73,4.18,1.76,4.18,4.51,0,3.23-2,4.41-5.46,4.41a19.24,19.24,0,0,1-4-.39l.2-1.73a29.77,29.77,0,0,0,3.77.3c2,0,3.33-.43,3.33-2.51,0-1.82-1.33-2.24-3.09-2.78-2.71-.82-4.29-1.57-4.29-4.38,0-3.15,1.88-4.18,5.25-4.18a21.35,21.35,0,0,1,4,.39l-.2,1.68a21.4,21.4,0,0,0-3.11-.28C303.23,134.87,301.19,135.06,301.19,137Z"/><path class="cls-1" d="M78,106.18,70.34,87.51c-.75-1.73-1.31-3-2.45-3s-1.71,1.32-2.4,3L60.85,98.27,56.27,87.51c-.69-1.65-1.24-3-2.4-3s-1.7,1.24-2.46,3l-7.62,18.68A3.61,3.61,0,0,0,45.45,111a3.56,3.56,0,0,0,1.87.35h3.36v4.25a2.77,2.77,0,0,0,2.77,2.77h1a2.77,2.77,0,0,0,2.77-2.77v-2.08a.81.81,0,0,0,0-.22v-2h7.4v4.3a2.77,2.77,0,0,0,2.77,2.77h1a2.77,2.77,0,0,0,2.77-2.77v-4.25h3.35A3.6,3.6,0,0,0,78,106.18Zm-20.31,3.11H55.11v6.32a.7.7,0,0,1-.7.7h-1a.7.7,0,0,1-.7-.7v-6.32H47.32A1.55,1.55,0,0,1,45.71,107l7.6-18.63c.11-.23.33-.74.54-1.18.15.3.32.69.52,1.16l5.36,12.61-2,5.27A4.06,4.06,0,0,0,57.65,109.29Zm4.49-.69A1.52,1.52,0,0,1,60,109a1.6,1.6,0,0,1-.41-.41,1.86,1.86,0,0,1,0-1.66l1.26-3.23,1.3,3.24A1.81,1.81,0,0,1,62.14,108.6Zm13.86,0a1.81,1.81,0,0,1-1.57.65H69v6.32a.7.7,0,0,1-.7.7h-1a.7.7,0,0,1-.7-.7v-6.28H64.11a4,4,0,0,0,0-3.1L62,100.92l5.43-12.61c.2-.48.37-.86.51-1.16.22.43.44.94.53,1.16L76,106.94a1.77,1.77,0,0,1,0,1.7Z"/><path class="cls-2" d="M82,120.4a28.83,28.83,0,0,1-21.18,9.22,19,19,0,0,1-2.62-.12,31.32,31.32,0,0,1-18.67-.8,31.26,31.26,0,0,0,56-19,28.28,28.28,0,0,0-.27-4.11A31.3,31.3,0,0,1,82,120.4Z"/><path class="cls-3" d="M65.73,72.2A29,29,0,0,1,86.84,88a31.14,31.14,0,0,1,8.5,17.6A31.26,31.26,0,0,0,48,68.14c.74,0,1.47-.07,2.22-.07A31,31,0,0,1,65.73,72.2Z"/><path class="cls-4" d="M89.79,100.71A28.75,28.75,0,0,1,82,120.4a31.25,31.25,0,0,0,13.32-14.84A31.14,31.14,0,0,0,86.84,88,28.77,28.77,0,0,1,89.79,100.71Z"/><path class="cls-5" d="M33.11,108.89A29.06,29.06,0,0,1,36.38,85.3,31.37,31.37,0,0,1,48,68.14a31.25,31.25,0,0,0-8.4,60.56,31.14,31.14,0,0,1-6.47-19A4.53,4.53,0,0,1,33.11,108.89Z"/><path class="cls-6" d="M58.24,129.5a29,29,0,0,1-25.13-20.61v.78a31.14,31.14,0,0,0,6.47,19,31.32,31.32,0,0,0,18.67.8Z"/><path class="cls-7" d="M36.38,85.3A29,29,0,0,1,65.73,72.2a31,31,0,0,0-15.54-4.14c-.75,0-1.48,0-2.22.07A31.34,31.34,0,0,0,36.38,85.3Z"/></svg>