<svg id="Layer_1" data-name="Layer 1" xmlns="http://www.w3.org/2000/svg" xmlns:xlink="http://www.w3.org/1999/xlink" viewBox="0 0 500 210.78"><defs><style>.cls-1{fill:#165c7d;}.cls-2{fill:url(#Gradiente_sem_nome);}.cls-3{fill:url(#Gradiente_sem_nome_2);}.cls-4{fill:#886b25;}.cls-5{fill:url(#Gradiente_sem_nome_3);}.cls-6{fill:#007d8a;}.cls-7{fill:#007041;}</style><linearGradient id="Gradiente_sem_nome" x1="112.84" y1="554.62" x2="168.84" y2="554.62" gradientTransform="matrix(1, 0, 0, -1, -19.92, 652.19)" gradientUnits="userSpaceOnUse"><stop offset="0" stop-color="#00a9ce"/><stop offset="0.41" stop-color="#00a7cb"/><stop offset="0.66" stop-color="#009fc3"/><stop offset="0.86" stop-color="#0091b5"/><stop offset="1" stop-color="#0083a6"/></linearGradient><linearGradient id="Gradiente_sem_nome_2" x1="121.26" y1="594.05" x2="171.16" y2="594.05" gradientTransform="matrix(1, 0, 0, -1, -19.92, 652.19)" gradientUnits="userSpaceOnUse"><stop offset="0" stop-color="#ffa300"/><stop offset="0.35" stop-color="#fca200"/><stop offset="0.56" stop-color="#f49d00"/><stop offset="0.73" stop-color="#e69600"/><stop offset="0.89" stop-color="#d28b00"/><stop offset="1" stop-color="#bd8000"/></linearGradient><linearGradient id="Gradiente_sem_nome_3" x1="92.23" y1="579.42" x2="121.26" y2="579.42" gradientTransform="matrix(1, 0, 0, -1, -19.92, 652.19)" gradientUnits="userSpaceOnUse"><stop offset="0" stop-color="#00b140"/><stop offset="0.39" stop-color="#00ae40"/><stop offset="0.62" stop-color="#01a63e"/><stop offset="0.82" stop-color="#02983b"/><stop offset="0.99" stop-color="#038437"/><stop offset="1" stop-color="#038237"/></linearGradient></defs><title>logo_viacredialtovale_space_pos</title><path class="cls-1" d="M168.9,174a16.28,16.28,0,0,1-3.61.38c-4.94,0-6.15-2.38-6.15-7.83s1.22-7.84,6.15-7.84a17.55,17.55,0,0,1,3.61.37l-.2,1.67a18.78,18.78,0,0,0-2.8-.24c-4.37,0-4.59,2.32-4.59,6s.26,6,4.59,6a16.57,16.57,0,0,0,2.81-.24Z"/><path class="cls-1" d="M171.2,166.57c0-5.57,1.31-7.84,5.92-7.84s5.93,2.27,5.93,7.84-1.31,7.83-5.93,7.83S171.2,172.13,171.2,166.57Zm9.69,0c0-3.58-.13-6.07-3.77-6.07s-3.77,2.49-3.77,6.07.12,6.06,3.77,6.06S180.89,170.13,180.89,166.57Z"/><path class="cls-1" d="M186.07,166.57c0-5.57,1.32-7.84,5.93-7.84s5.92,2.27,5.92,7.84-1.3,7.83-5.92,7.83S186.07,172.13,186.07,166.57Zm9.7,0c0-3.58-.13-6.07-3.77-6.07s-3.77,2.49-3.77,6.07.12,6.06,3.77,6.06,3.77-2.5,3.77-6.06Z"/><path class="cls-1" d="M203.44,174.25h-2.11V159.11a29.85,29.85,0,0,1,4.72-.38c3.28,0,6,.66,6,4.7s-2.38,4.8-5.78,4.8c-.8,0-2.06-.06-2.78-.1Zm0-7.85a20.74,20.74,0,0,0,2.61.13c2.46,0,3.85-.62,3.85-3.1,0-2.14-1-3-3.77-3a20.15,20.15,0,0,0-2.69.18Z"/><path class="cls-1" d="M223.62,160.6h-3.91c-2.48,0-2.9.48-2.9,2.68v2.29h6.51v1.71h-6.51v2.58c0,2.21.42,2.67,2.9,2.67h3.91v1.66c-1.16.06-2.74.09-3.85.09-2.62,0-5.07-.13-5.07-3.5v-8.43c0-3.36,2.45-3.5,5.07-3.5,1,0,2.67,0,3.85.09Z"/><path class="cls-1" d="M226.87,174.25V159.11a29.72,29.72,0,0,1,4.71-.38c3.26,0,6,.63,6,4.64,0,2.9-1.36,4.11-3.45,4.53l3.62,6.35h-2.47l-3.37-6.15h-.11c-.8,0-2.05-.06-2.78-.1v6.25Zm2.11-8a22.52,22.52,0,0,0,2.6.12c2.44,0,3.85-.62,3.85-3,0-2.12-1-2.94-3.77-2.94a20,20,0,0,0-2.68.18Z"/><path class="cls-1" d="M239.54,174.25l4.94-14.05a1.79,1.79,0,0,1,3.53,0l4.87,14.05h-2.25L249.2,170h-6.07l-1.41,4.26Zm9.1-5.92-2.48-7.41-2.47,7.41Z"/><path class="cls-1" d="M264.2,160.62h-4v13.63h-2.12V160.62h-4v-1.73h10.13Z"/><path class="cls-1" d="M266.65,158.89h2.13v15.36h-2.13Z"/><path class="cls-1" d="M279.26,172.93c-.35,1-.87,1.47-1.66,1.47s-1.31-.43-1.66-1.47l-4.68-14h2.26l4.11,13,4.16-13H284Z"/><path class="cls-1" d="M285.19,174.25l4.94-14.05a1.79,1.79,0,0,1,3.53,0l4.87,14.05h-2.25L294.85,170h-6.07l-1.39,4.26Zm9.1-5.92-2.48-7.41-2.42,7.41Z"/><path class="cls-1" d="M305.86,174.25l4.94-14.05a1.79,1.79,0,0,1,3.53,0l4.87,14.05H317L315.52,170h-6.07L308,174.25Zm9.1-5.92-2.48-7.41L310,168.33Z"/><path class="cls-1" d="M321.71,158.89h2.13v15.36h-2.13Z"/><path class="cls-1" d="M336.22,174.21c-1.17,0-2.57.07-3.59.07-2.62,0-5.07-.13-5.07-3.5V158.89h2.13v11c0,2.2.41,2.67,2.88,2.67h3.65Z"/><path class="cls-1" d="M338.05,166.57c0-5.57,1.32-7.84,5.93-7.84s5.92,2.27,5.92,7.84-1.3,7.83-5.92,7.83S338.05,172.13,338.05,166.57Zm9.7,0c0-3.58-.13-6.07-3.77-6.07s-3.77,2.49-3.77,6.07.12,6.06,3.77,6.06,3.77-2.5,3.77-6.06Z"/><path class="cls-1" d="M354.69,162.62c0,1.94,1,2.22,3.27,2.86,2.59.73,4.17,1.76,4.17,4.51,0,3.23-2,4.41-5.45,4.41a19.17,19.17,0,0,1-4-.39l.21-1.73a29.47,29.47,0,0,0,3.76.3c2,0,3.33-.43,3.33-2.51,0-1.82-1.33-2.24-3.09-2.78-2.7-.82-4.28-1.57-4.28-4.38,0-3.15,1.88-4.18,5.24-4.18a22.4,22.4,0,0,1,4,.39l-.19,1.68a21.79,21.79,0,0,0-3.12-.28C356.73,160.52,354.69,160.7,354.69,162.62Z"/><path class="cls-1" d="M182.72,90.61c-1.23,3.81-3.19,5.33-6.07,5.33s-4.81-1.41-6.09-5.33l-11.31-34.5h8.53l8.94,30.42,9-30.42H194Z"/><path class="cls-1" d="M198.45,56.11h8V95.53h-8Z"/><path class="cls-1" d="M211,95.53,222.73,61.2c1.32-3.86,3.45-5.5,6.48-5.5s5.16,1.74,6.43,5.5l11.52,34.33h-8.49l-3-9.76H222.2l-2.94,9.76Zm22.78-15.9-4.91-15.94-4.82,15.94Z"/><path class="cls-1" d="M277.21,94.76a41.15,41.15,0,0,1-10.31,1.18c-13.1,0-16.33-6.13-16.33-20.12S253.82,55.7,266.9,55.7a41.64,41.64,0,0,1,10.31,1.2l-.71,6.18a50,50,0,0,0-8.11-.67c-9.47,0-9.64,5.67-9.64,13.42s.13,13.42,9.64,13.42a50.06,50.06,0,0,0,8.11-.68Z"/><path class="cls-1" d="M290.87,95.53h-8V56.78A76.62,76.62,0,0,1,295.7,55.7c8.72,0,15.84,1.73,15.84,12.39,0,7-2.93,10.25-7.56,11.66l9,15.78h-9.21l-8.08-14.87c-1.6,0-3.43-.09-4.82-.17Zm0-21.4a44,44,0,0,0,4.87.2c5,0,7.89-1.27,7.89-6.28,0-4.36-2-6.11-7.72-6.11a39.87,39.87,0,0,0-5,.34Z"/><path class="cls-1" d="M342.81,62.5H331.93c-4.72,0-5.53,1-5.53,5.33V72.3h15.67v6.36H326.39v5.11c0,4.37.81,5.37,5.53,5.37H342.8v6.19c-2.77.14-8.07.3-10.71.3-7.12,0-13.69-.38-13.69-9.62V65.61c0-9.23,6.57-9.61,13.69-9.61,2.86,0,8,.16,10.71.29Z"/><path class="cls-1" d="M350.13,56.82A72.7,72.7,0,0,1,363,55.7c14.78,0,17.4,6.72,17.4,20.12S377.75,95.94,363,95.94a74.68,74.68,0,0,1-12.84-1.08Zm8,5.7v26.6a24.7,24.7,0,0,0,3.74.29c10.39,0,10.52-5.89,10.52-13.59s-.09-13.57-10.48-13.57A26.49,26.49,0,0,0,358.13,62.52Z"/><path class="cls-1" d="M387.25,56.11h8V95.53h-8Z"/><path class="cls-1" d="M159.18,146.53,170.9,112.2c1.32-3.86,3.46-5.5,6.49-5.5s5.16,1.74,6.42,5.5l11.58,34.33h-8.5l-3-9.76h-13.5l-3,9.76ZM182,130.63l-4.9-15.94-4.83,15.94Z"/><path class="cls-1" d="M223.61,146.41c-2.8.12-7.62.27-10.09.27-7.12,0-13.69-.38-13.69-9.62V107.11h8v27.66c0,4.38.8,5.37,5.52,5.37h10.24Z"/><path class="cls-1" d="M249.51,113.57h-9.7v33h-8v-33h-9.64v-6.46h27.38Z"/><path class="cls-1" d="M253.14,126.82c0-14.28,3.5-20.12,15.77-20.12s15.75,5.84,15.75,20.12-3.5,20.12-15.75,20.12S253.14,141.1,253.14,126.82Zm23.4,0c0-8-.17-13.54-7.63-13.54s-7.65,5.5-7.65,13.54.17,13.52,7.65,13.52S276.54,134.86,276.54,126.82Z"/><path class="cls-1" d="M325.39,141.61c-1.23,3.81-3.2,5.33-6.07,5.33s-4.81-1.41-6.1-5.33l-11.3-34.5h8.53l8.94,30.42,9-30.42h8.22Z"/><path class="cls-1" d="M334.67,146.53l11.72-34.33c1.32-3.86,3.45-5.5,6.48-5.5s5.16,1.74,6.43,5.5l11.53,34.33h-8.44l-3-9.76H345.88l-2.95,9.76Zm22.78-15.9-4.91-15.94-4.82,15.94Z"/><path class="cls-1" d="M399.1,146.41c-2.79.12-7.61.27-10.08.27-7.13,0-13.69-.38-13.69-9.62V107.11h8v27.66c0,4.38.79,5.37,5.51,5.37h10.24Z"/><path class="cls-1" d="M427.64,113.5H416.76c-4.72,0-5.53,1-5.53,5.33v4.47H426.9v6.36H411.23v5.11c0,4.37.81,5.37,5.53,5.37h10.88v6.19c-2.77.13-8.07.3-10.71.3-7.12,0-13.69-.38-13.69-9.62v-20.4c0-9.24,6.57-9.61,13.69-9.61,2.86,0,8,.16,10.71.29Z"/><path class="cls-1" d="M131.33,80.53l-7.62-18.67c-.75-1.73-1.31-3-2.45-3s-1.71,1.32-2.4,3l-4.64,10.76-4.58-10.76c-.69-1.65-1.24-3-2.4-3s-1.7,1.24-2.46,3L97.16,80.54a3.59,3.59,0,0,0,3.53,5.17h3.36V90a2.77,2.77,0,0,0,2.77,2.77h1A2.77,2.77,0,0,0,110.59,90v-4.3H118v2a.81.81,0,0,0,0,.22V90a2.77,2.77,0,0,0,2.77,2.77h1A2.78,2.78,0,0,0,124.53,90V85.71h3.35a3.6,3.6,0,0,0,3.89-3.28,3.66,3.66,0,0,0-.36-1.9ZM111,83.64h-2.54V90a.7.7,0,0,1-.7.7h-1a.7.7,0,0,1-.7-.7V83.64h-5.39A1.79,1.79,0,0,1,99.13,83a1.76,1.76,0,0,1,0-1.68l7.6-18.63c.11-.23.33-.74.54-1.18.15.3.32.69.52,1.16l5.36,12.61-2,5.27A4,4,0,0,0,111,83.64Zm4.49-.69a1.52,1.52,0,0,1-2.11.41A1.6,1.6,0,0,1,113,83a1.86,1.86,0,0,1,0-1.66l1.26-3.23,1.3,3.24A1.84,1.84,0,0,1,115.51,83Zm13.86,0a1.82,1.82,0,0,1-1.57.65h-5.41v6.32a.7.7,0,0,1-.7.7h-1a.7.7,0,0,1-.7-.7V83.64h-2.51a4,4,0,0,0,0-3.1l-2.12-5.27,5.43-12.61c.2-.48.37-.86.51-1.16.22.43.44.94.53,1.16l7.56,18.63a1.83,1.83,0,0,1,0,1.7Z"/><path class="cls-2" d="M135.39,94.75A28.85,28.85,0,0,1,114.21,104a19,19,0,0,1-2.62-.12,31.32,31.32,0,0,1-18.67-.8,31.23,31.23,0,0,0,55.73-23.11A31.35,31.35,0,0,1,135.39,94.75Z"/><path class="cls-3" d="M119.1,46.55a29,29,0,0,1,21.11,15.76,31.14,31.14,0,0,1,8.5,17.6,31.26,31.26,0,0,0-47.32-37.42c.74,0,1.47-.07,2.22-.07A31,31,0,0,1,119.1,46.55Z"/><path class="cls-4" d="M143.16,75.06a28.85,28.85,0,0,1-7.77,19.69,31.3,31.3,0,0,0,13.32-14.84,31.14,31.14,0,0,0-8.5-17.6A28.77,28.77,0,0,1,143.16,75.06Z"/><path class="cls-5" d="M86.48,83.24a29,29,0,0,1,3.27-23.59,31.31,31.31,0,0,1,11.64-17.16A31.25,31.25,0,0,0,93,103.05a31.08,31.08,0,0,1-6.47-19A4.53,4.53,0,0,1,86.48,83.24Z"/><path class="cls-6" d="M111.61,103.85A28.93,28.93,0,0,1,86.48,83.24V84A31.08,31.08,0,0,0,93,103a31.32,31.32,0,0,0,18.67.8Z"/><path class="cls-7" d="M89.75,59.65a29,29,0,0,1,29.35-13.1,31.06,31.06,0,0,0-15.54-4.14c-.75,0-1.48,0-2.22.07A31.29,31.29,0,0,0,89.75,59.65Z"/></svg>