<svg id="Layer_1" data-name="Layer 1" xmlns="http://www.w3.org/2000/svg" xmlns:xlink="http://www.w3.org/1999/xlink" viewBox="0 0 500 210.78"><defs><style>.cls-1{fill:#165c7d;}.cls-2{fill:url(#Gradiente_sem_nome);}.cls-3{fill:url(#Gradiente_sem_nome_2);}.cls-4{fill:#886b25;}.cls-5{fill:url(#Gradiente_sem_nome_3);}.cls-6{fill:#007d8a;}.cls-7{fill:#007041;}</style><linearGradient id="Gradiente_sem_nome" x1="143.63" y1="67.55" x2="199.63" y2="67.55" gradientTransform="matrix(1, 0, 0, -1, -19.77, 190.78)" gradientUnits="userSpaceOnUse"><stop offset="0" stop-color="#00a9ce"/><stop offset="0.41" stop-color="#00a7cb"/><stop offset="0.66" stop-color="#009fc3"/><stop offset="0.86" stop-color="#0091b5"/><stop offset="1" stop-color="#0083a6"/></linearGradient><linearGradient id="Gradiente_sem_nome_2" x1="152.03" y1="107.01" x2="201.94" y2="107.01" gradientTransform="matrix(1, 0, 0, -1, -19.77, 190.78)" gradientUnits="userSpaceOnUse"><stop offset="0" stop-color="#ffa300"/><stop offset="0.35" stop-color="#fca200"/><stop offset="0.56" stop-color="#f49d00"/><stop offset="0.73" stop-color="#e69600"/><stop offset="0.89" stop-color="#d28b00"/><stop offset="1" stop-color="#bd8000"/></linearGradient><linearGradient id="Gradiente_sem_nome_3" x1="123" y1="92.36" x2="152.03" y2="92.36" gradientTransform="matrix(1, 0, 0, -1, -19.77, 190.78)" gradientUnits="userSpaceOnUse"><stop offset="0" stop-color="#00b140"/><stop offset="0.39" stop-color="#00ae40"/><stop offset="0.62" stop-color="#01a63e"/><stop offset="0.82" stop-color="#02983b"/><stop offset="0.99" stop-color="#038437"/><stop offset="1" stop-color="#038237"/></linearGradient></defs><title>Prancheta 15</title><path class="cls-1" d="M216.05,120.45a40.26,40.26,0,0,1-10.31,1.19c-13.09,0-16.28-6.13-16.28-20.12s3.25-20.12,16.33-20.12a41.17,41.17,0,0,1,10.31,1.2l-.71,6.17a51.32,51.32,0,0,0-8.12-.67c-9.48,0-9.65,5.67-9.65,13.42s.14,13.42,9.65,13.42a48.93,48.93,0,0,0,8.1-.68Z"/><path class="cls-1" d="M229.71,121.21h-8V82.48a74.37,74.37,0,0,1,12.82-1.08c8.72,0,15.84,1.72,15.84,12.38,0,7-2.93,10.26-7.56,11.66l9,15.79H242.6l-8.08-14.87c-1.61,0-3.44-.09-4.83-.17Zm0-21.4a41.83,41.83,0,0,0,4.88.2c5,0,7.88-1.27,7.88-6.28,0-4.37-2-6.11-7.71-6.11a40.54,40.54,0,0,0-5,.34Z"/><path class="cls-1" d="M281.65,88.21H270.77c-4.72,0-5.53,1-5.53,5.33V98h15.67v6.36H265.24v5.11c0,4.37.81,5.36,5.53,5.36h10.88V121c-2.77.13-8.07.3-10.71.3-7.12,0-13.69-.39-13.69-9.63V91.31c0-9.24,6.57-9.61,13.69-9.61,2.86,0,8,.15,10.71.29Z"/><path class="cls-1" d="M309,116.31c-1.23,3.8-3.2,5.33-6.07,5.33s-4.81-1.41-6.1-5.33L285.52,81.8h8.53L303,112.21l9-30.43h8.22Z"/><path class="cls-1" d="M324.72,81.8h8v39.41h-8Z"/><path class="cls-1" d="M347.07,92c0,4,2.7,4.5,7.24,5.72,7.54,2,10.79,5,10.79,12.1,0,8.7-5.29,11.83-14.63,11.83a52.55,52.55,0,0,1-11.39-1.22l.78-6.31a81,81,0,0,0,10.32.88c4.14,0,6.68-.93,6.68-4.89,0-3.68-2.89-4.51-6.55-5.62-7.07-2.17-11.23-4.35-11.23-11.8,0-8.54,5-11.28,14.11-11.28a57.7,57.7,0,0,1,11.27,1.23l-.73,6.14a58.81,58.81,0,0,0-8.68-.86C351.89,87.91,347.07,88.05,347.07,92Z"/><path class="cls-1" d="M396.77,120.45a40.26,40.26,0,0,1-10.31,1.19c-13.1,0-16.33-6.13-16.33-20.12s3.26-20.12,16.33-20.12a41.09,41.09,0,0,1,10.3,1.2l-.71,6.17a51.32,51.32,0,0,0-8.12-.67c-9.48,0-9.65,5.67-9.65,13.42s.14,13.42,9.65,13.42a49,49,0,0,0,8.11-.68Z"/><path class="cls-1" d="M199.13,148.42a16.9,16.9,0,0,1-3.61.38c-4.93,0-6.14-2.39-6.14-7.84s1.21-7.84,6.14-7.84a17.57,17.57,0,0,1,3.61.38l-.19,1.71a18.8,18.8,0,0,0-2.8-.25c-4.38,0-4.6,2.32-4.6,6s.26,6,4.6,6a16.46,16.46,0,0,0,2.8-.24Z"/><path class="cls-1" d="M201.46,141c0-5.56,1.31-7.84,5.93-7.84s5.92,2.28,5.92,7.84-1.31,7.84-5.92,7.84S201.46,146.52,201.46,141Zm9.7,0c0-3.57-.13-6.06-3.77-6.06s-3.77,2.49-3.77,6.06.11,6.07,3.77,6.07,3.74-2.5,3.74-6.07Z"/><path class="cls-1" d="M216.31,141c0-5.56,1.31-7.84,5.93-7.84s5.92,2.28,5.92,7.84-1.31,7.84-5.92,7.84S216.31,146.52,216.31,141Zm9.7,0c0-3.57-.13-6.06-3.77-6.06s-3.78,2.49-3.78,6.06.11,6.07,3.77,6.07S226,144.53,226,141Z"/><path class="cls-1" d="M233.67,148.64h-2.11V133.51a28.72,28.72,0,0,1,4.72-.39c3.28,0,6,.67,6,4.7s-2.38,4.8-5.77,4.8c-.8,0-2.06,0-2.79-.09Zm0-7.84a22.8,22.8,0,0,0,2.61.12c2.46,0,3.85-.62,3.85-3.1,0-2.14-1-3-3.77-3a22,22,0,0,0-2.69.17Z"/><path class="cls-1" d="M253.85,135h-3.91c-2.48,0-2.89.47-2.89,2.67V140h6.5v1.7h-6.5v2.59c0,2.21.41,2.67,2.89,2.67h3.91v1.66c-1.15,0-2.73.09-3.84.09-2.63,0-5.07-.14-5.07-3.5v-8.43c0-3.36,2.44-3.51,5.07-3.51,1,0,2.67,0,3.84.1Z"/><path class="cls-1" d="M257.1,148.64V133.51a28.72,28.72,0,0,1,4.72-.39c3.26,0,5.95.64,5.95,4.64,0,2.91-1.36,4.12-3.45,4.54l3.63,6.34h-2.49l-3.38-6.14H262c-.8,0-2.05-.06-2.77-.1v6.24Zm2.12-8a20.48,20.48,0,0,0,2.6.11c2.44,0,3.85-.61,3.85-3,0-2.12-1-3-3.77-3a21.81,21.81,0,0,0-2.68.19Z"/><path class="cls-1" d="M269.77,148.64l4.94-14a1.79,1.79,0,0,1,3.53,0l4.87,14h-2.25l-1.4-4.26H273.4L272,148.64Zm9.1-5.92-2.48-7.41-2.47,7.41Z"/><path class="cls-1" d="M294.46,135h-4v13.62h-2.12V135h-4v-1.74h10.12Z"/><path class="cls-1" d="M296.88,133.28H299v15.36h-2.13Z"/><path class="cls-1" d="M309.46,147.32c-.36,1-.88,1.48-1.66,1.48s-1.31-.43-1.67-1.48l-4.68-14h2.26l4.11,13,4.16-13h2.16Z"/><path class="cls-1" d="M315.46,148.64l4.94-14a1.79,1.79,0,0,1,3.53,0l4.87,14h-2.25l-1.43-4.26h-6.06l-1.42,4.26Zm9.1-5.92-2.48-7.41-2.47,7.41Z"/><path class="cls-1" d="M336.09,148.64l4.94-14a1.79,1.79,0,0,1,3.53,0l4.9,14h-2.25l-1.43-4.26h-6.06l-1.42,4.26Zm9.1-5.92-2.48-7.41-2.47,7.41Z"/><path class="cls-1" d="M351.94,133.28h2.13v15.36h-2.13Z"/><path class="cls-1" d="M366.46,148.6c-1.17,0-2.56.08-3.58.08-2.62,0-5.07-.14-5.07-3.5v-11.9h2.12v11c0,2.19.41,2.67,2.89,2.67h3.64Z"/><path class="cls-1" d="M368.29,141c0-5.56,1.31-7.84,5.93-7.84s5.92,2.28,5.92,7.84-1.31,7.84-5.92,7.84S368.29,146.52,368.29,141Zm9.7,0c0-3.57-.13-6.06-3.77-6.06s-3.76,2.49-3.76,6.06.11,6.07,3.77,6.07S378,144.53,378,141Z"/><path class="cls-1" d="M384.92,137c0,1.93,1,2.22,3.27,2.85,2.59.74,4.17,1.76,4.17,4.52,0,3.23-1.95,4.41-5.45,4.41a17.92,17.92,0,0,1-4-.4l.21-1.72a26.23,26.23,0,0,0,3.76.3c2,0,3.33-.43,3.33-2.51,0-1.82-1.32-2.24-3.09-2.78-2.7-.83-4.28-1.57-4.28-4.38,0-3.16,1.88-4.19,5.25-4.19a22.4,22.4,0,0,1,4,.39l-.24,1.7a23.17,23.17,0,0,0-3.11-.27C387,134.92,384.92,135.09,384.92,137Z"/><path class="cls-1" d="M162.25,106.21l-7.62-18.7c-.76-1.73-1.32-3-2.46-3s-1.7,1.31-2.39,3l-4.64,10.76-4.58-10.76c-.69-1.66-1.24-3-2.4-3s-1.7,1.24-2.46,3l-7.62,18.7a3.59,3.59,0,0,0,3.53,5.17H135v4.23a2.76,2.76,0,0,0,2.77,2.76h1a2.76,2.76,0,0,0,2.72-2.76v-4.25h7.4v4.25a2.76,2.76,0,0,0,2.76,2.76h1a2.77,2.77,0,0,0,2.76-2.76v-4.25h3.35a3.6,3.6,0,0,0,3.86-3.34A3.66,3.66,0,0,0,162.25,106.21Zm-20.31,3.08H139.4v6.32a.71.71,0,0,1-.7.7h-1a.7.7,0,0,1-.7-.7v-6.32h-5.39a1.55,1.55,0,0,1-1.81-1.23,1.57,1.57,0,0,1,.2-1.1l7.6-18.63c.1-.23.33-.75.54-1.18.14.3.32.68.51,1.16L144,100.92,142,106.21A3.92,3.92,0,0,0,141.94,109.29Zm4.52-.69a1.53,1.53,0,0,1-2.14.39,1.45,1.45,0,0,1-.39-.39,1.84,1.84,0,0,1,0-1.65l1.26-3.23,1.27,3.23A1.84,1.84,0,0,1,146.46,108.6Zm13.86,0a1.82,1.82,0,0,1-1.57.65H153.3v6.36a.71.71,0,0,1-.7.7h-1a.7.7,0,0,1-.7-.7v-6.32h-2.5a4,4,0,0,0,0-3.1l-2.15-5.28,5.43-12.6c.2-.48.37-.86.51-1.16.21.43.44.94.53,1.16l7.61,18.63a1.83,1.83,0,0,1,0,1.7Z"/><path class="cls-2" d="M166.33,120.4a28.85,28.85,0,0,1-21.18,9.22,19,19,0,0,1-2.62-.12,31.32,31.32,0,0,1-18.67-.8,31.23,31.23,0,0,0,55.73-23.11A31.35,31.35,0,0,1,166.33,120.4Z"/><path class="cls-3" d="M150,72.21A29,29,0,0,1,171.12,88a31.19,31.19,0,0,1,8.51,17.59,31.26,31.26,0,0,0-47.37-37.42c.73,0,1.47-.08,2.22-.08A31.18,31.18,0,0,1,150,72.21Z"/><path class="cls-4" d="M174.08,100.7a28.79,28.79,0,0,1-7.75,19.7,31.33,31.33,0,0,0,13.3-14.85A31.19,31.19,0,0,0,171.12,88,28.9,28.9,0,0,1,174.08,100.7Z"/><path class="cls-5" d="M117.4,108.89a29.07,29.07,0,0,1-1.18-8.19,28.67,28.67,0,0,1,4.45-15.4,31.27,31.27,0,0,1,11.59-17.16,31.25,31.25,0,0,0-8.4,60.56,31.08,31.08,0,0,1-6.47-19C117.39,109.4,117.39,109.14,117.4,108.89Z"/><path class="cls-6" d="M142.53,129.5a28.93,28.93,0,0,1-25.13-20.61v.77a31.08,31.08,0,0,0,6.47,19,31.32,31.32,0,0,0,18.67.8Z"/><path class="cls-7" d="M120.67,85.3A29,29,0,0,1,150,72.21a31.22,31.22,0,0,0-15.56-4.15,20.41,20.41,0,0,0-2.22.08A31.36,31.36,0,0,0,120.67,85.3Z"/></svg>