<svg id="Layer_1" data-name="Layer 1" xmlns="http://www.w3.org/2000/svg" xmlns:xlink="http://www.w3.org/1999/xlink" viewBox="0 0 500 210.78"><defs><style>.cls-1{fill:#165c7d;}.cls-2{fill:url(#Gradiente_sem_nome);}.cls-3{fill:url(#Gradiente_sem_nome_2);}.cls-4{fill:#886b25;}.cls-5{fill:url(#Gradiente_sem_nome_3);}.cls-6{fill:#007d8a;}.cls-7{fill:#007041;}</style><linearGradient id="Gradiente_sem_nome" x1="83.72" y1="67.41" x2="139.72" y2="67.41" gradientTransform="matrix(1, 0, 0, -1, -19.92, 190.63)" gradientUnits="userSpaceOnUse"><stop offset="0" stop-color="#00a9ce"/><stop offset="0.41" stop-color="#00a7cb"/><stop offset="0.66" stop-color="#009fc3"/><stop offset="0.86" stop-color="#0091b5"/><stop offset="1" stop-color="#0083a6"/></linearGradient><linearGradient id="Gradiente_sem_nome_2" x1="92.14" y1="106.84" x2="142.04" y2="106.84" gradientTransform="matrix(1, 0, 0, -1, -19.92, 190.63)" gradientUnits="userSpaceOnUse"><stop offset="0" stop-color="#ffa300"/><stop offset="0.35" stop-color="#fca200"/><stop offset="0.56" stop-color="#f49d00"/><stop offset="0.73" stop-color="#e69600"/><stop offset="0.89" stop-color="#d28b00"/><stop offset="1" stop-color="#bd8000"/></linearGradient><linearGradient id="Gradiente_sem_nome_3" x1="63.11" y1="92.21" x2="92.14" y2="92.21" gradientTransform="matrix(1, 0, 0, -1, -19.92, 190.63)" gradientUnits="userSpaceOnUse"><stop offset="0" stop-color="#00b140"/><stop offset="0.39" stop-color="#00ae40"/><stop offset="0.62" stop-color="#01a63e"/><stop offset="0.82" stop-color="#02983b"/><stop offset="0.99" stop-color="#038437"/><stop offset="1" stop-color="#038237"/></linearGradient></defs><title>Prancheta 13</title><path class="cls-1" d="M102.21,106.18,94.59,87.51c-.75-1.73-1.31-3-2.45-3s-1.71,1.32-2.4,3L85.1,98.27,80.52,87.51c-.69-1.65-1.24-3-2.4-3s-1.7,1.24-2.46,3L68,106.19A3.61,3.61,0,0,0,69.7,111a3.56,3.56,0,0,0,1.87.35h3.36v4.25a2.77,2.77,0,0,0,2.77,2.77h1a2.77,2.77,0,0,0,2.77-2.77v-2.08a.81.81,0,0,0,0-.22v-2h7.4v4.3a2.77,2.77,0,0,0,2.77,2.77h1a2.77,2.77,0,0,0,2.77-2.77v-4.25h3.35a3.6,3.6,0,0,0,3.53-5.18ZM81.9,109.29H79.36v6.32a.7.7,0,0,1-.7.7h-1a.7.7,0,0,1-.7-.7v-6.32H71.57A1.55,1.55,0,0,1,70,107l7.6-18.63c.11-.23.33-.74.54-1.18.15.3.32.69.52,1.16L84,100.92l-2,5.27A4.06,4.06,0,0,0,81.9,109.29Zm4.49-.69a1.52,1.52,0,0,1-2.11.41,1.6,1.6,0,0,1-.41-.41,1.86,1.86,0,0,1,0-1.66l1.26-3.23,1.3,3.24A1.81,1.81,0,0,1,86.39,108.6Zm13.86,0a1.81,1.81,0,0,1-1.57.65H93.27v6.32a.7.7,0,0,1-.7.7h-1a.7.7,0,0,1-.7-.7v-6.28H88.36a4,4,0,0,0,0-3.1l-2.12-5.27,5.43-12.61c.2-.48.37-.86.51-1.16.22.43.44.94.53,1.16l7.56,18.63a1.77,1.77,0,0,1,0,1.7Z"/><path class="cls-2" d="M106.27,120.4a28.83,28.83,0,0,1-21.18,9.22,19,19,0,0,1-2.62-.12,31.32,31.32,0,0,1-18.67-.8,31.26,31.26,0,0,0,56-19,28.28,28.28,0,0,0-.27-4.11A31.3,31.3,0,0,1,106.27,120.4Z"/><path class="cls-3" d="M90,72.2A29,29,0,0,1,111.09,88a31.14,31.14,0,0,1,8.5,17.6A31.26,31.26,0,0,0,72.27,68.14c.74,0,1.47-.07,2.22-.07A31,31,0,0,1,90,72.2Z"/><path class="cls-4" d="M114,100.71a28.75,28.75,0,0,1-7.77,19.69,31.25,31.25,0,0,0,13.32-14.84,31.14,31.14,0,0,0-8.5-17.6A28.77,28.77,0,0,1,114,100.71Z"/><path class="cls-5" d="M57.36,108.89A29.06,29.06,0,0,1,60.63,85.3,31.37,31.37,0,0,1,72.27,68.14a31.25,31.25,0,0,0-8.4,60.56,31.14,31.14,0,0,1-6.47-19A4.53,4.53,0,0,1,57.36,108.89Z"/><path class="cls-6" d="M82.49,129.5a29,29,0,0,1-25.13-20.61v.78a31.14,31.14,0,0,0,6.47,19,31.32,31.32,0,0,0,18.67.8Z"/><path class="cls-7" d="M60.63,85.3A29,29,0,0,1,90,72.2a31,31,0,0,0-15.54-4.14c-.75,0-1.48,0-2.22.07A31.34,31.34,0,0,0,60.63,85.3Z"/><path class="cls-1" d="M130.06,121.18l11.72-34.33c1.32-3.86,3.46-5.5,6.49-5.5s5.16,1.74,6.43,5.5l11.57,34.33h-8.5l-3-9.76h-13.5l-3,9.76Zm22.77-15.9-4.9-15.94-4.83,15.94Z"/><path class="cls-1" d="M196.27,120.4a41,41,0,0,1-10.3,1.19c-13.1,0-16.33-6.13-16.33-20.12S172.89,81.35,186,81.35a41.51,41.51,0,0,1,10.3,1.2l-.71,6.18a50.08,50.08,0,0,0-8.12-.68c-9.48,0-9.65,5.67-9.65,13.42s.14,13.42,9.65,13.42a50.06,50.06,0,0,0,8.11-.68Z"/><path class="cls-1" d="M209.93,121.18h-8V82.43a76.62,76.62,0,0,1,12.83-1.08c8.71,0,15.84,1.72,15.84,12.39,0,7-2.93,10.25-7.57,11.66l9,15.78h-9.2l-8.09-14.87c-1.61,0-3.44-.09-4.82-.17Zm0-21.4a41.75,41.75,0,0,0,4.87.2c5,0,7.89-1.27,7.89-6.28,0-4.36-2-6.11-7.72-6.11a39.87,39.87,0,0,0-5,.34Z"/><path class="cls-1" d="M261.87,88.15H251c-4.72,0-5.54,1-5.54,5.33V98h15.67v6.36H245.45v5.11c0,4.37.82,5.37,5.54,5.37h10.88V121c-2.78.14-8.07.3-10.71.3-7.13,0-13.69-.38-13.69-9.62V91.27c0-9.24,6.56-9.62,13.69-9.62,2.86,0,8,.16,10.71.29Z"/><path class="cls-1" d="M269.19,82.47A72.78,72.78,0,0,1,282,81.35c14.77,0,17.4,6.72,17.4,20.12s-2.63,20.12-17.4,20.12a74.77,74.77,0,0,1-12.84-1.08Zm8,5.7v26.6a24.7,24.7,0,0,0,3.74.29c10.39,0,10.47-5.89,10.47-13.59s-.08-13.57-10.47-13.57A29.27,29.27,0,0,0,277.19,88.17Z"/><path class="cls-1" d="M306.27,81.75h8v39.43h-8Z"/><path class="cls-1" d="M347.74,120.4a41.11,41.11,0,0,1-10.31,1.19c-13.1,0-16.33-6.13-16.33-20.12s3.25-20.12,16.33-20.12a41.59,41.59,0,0,1,10.31,1.2L347,88.73a50.21,50.21,0,0,0-8.13-.68c-9.47,0-9.64,5.67-9.64,13.42s.13,13.42,9.64,13.42a50.06,50.06,0,0,0,8.11-.68Z"/><path class="cls-1" d="M352.27,101.47c0-14.28,3.51-20.12,15.78-20.12s15.75,5.84,15.75,20.12-3.5,20.12-15.75,20.12S352.27,115.75,352.27,101.47Zm23.41,0c0-8-.17-13.54-7.63-13.54s-7.65,5.5-7.65,13.54.17,13.52,7.65,13.52,7.67-5.48,7.67-13.52Z"/><path class="cls-1" d="M389.65,101.47c0-14.28,3.5-20.12,15.77-20.12s15.76,5.84,15.76,20.12-3.51,20.12-15.76,20.12S389.65,115.75,389.65,101.47Zm23.41,0c0-8-.17-13.54-7.64-13.54s-7.65,5.5-7.65,13.54.17,13.52,7.65,13.52S413.06,109.51,413.06,101.47Z"/><path class="cls-1" d="M436.08,121.18h-8V82.43a76.62,76.62,0,0,1,12.83-1.08c8.78,0,15.84,1.74,15.84,12.52,0,10.48-6.37,12.74-15.42,12.74-1.73,0-3.74-.08-5.26-.18Zm0-21.08a37.8,37.8,0,0,0,4.87.22c5,0,7.87-1.3,7.87-6.45,0-4.48-1.88-6.26-7.7-6.26a39.87,39.87,0,0,0-5,.34Z"/><path class="cls-1" d="M139.84,148.37a16.25,16.25,0,0,1-3.62.38c-4.93,0-6.14-2.39-6.14-7.84s1.19-7.85,6.19-7.85a16.91,16.91,0,0,1,3.62.37l-.2,1.67a18.67,18.67,0,0,0-2.8-.24c-4.37,0-4.6,2.32-4.6,6s.26,6,4.6,6a18.69,18.69,0,0,0,2.81-.24Z"/><path class="cls-1" d="M142.13,140.91c0-5.56,1.32-7.83,5.93-7.83s5.92,2.27,5.92,7.83-1.3,7.84-5.92,7.84S142.13,146.48,142.13,140.91Zm9.7,0c0-3.57-.13-6.06-3.77-6.06s-3.79,2.49-3.79,6.06S144.39,147,148,147,151.83,144.48,151.83,140.91Z"/><path class="cls-1" d="M157,140.91c0-5.56,1.31-7.83,5.93-7.83s5.92,2.27,5.92,7.83-1.31,7.84-5.92,7.84S157,146.48,157,140.91Zm9.7,0c0-3.57-.13-6.06-3.77-6.06s-3.77,2.49-3.77,6.06.12,6.07,3.77,6.07S166.71,144.48,166.71,140.91Z"/><path class="cls-1" d="M174.38,148.59h-2.11V133.46a29.85,29.85,0,0,1,4.72-.38c3.29,0,6,.66,6,4.7s-2.39,4.79-5.78,4.79c-.8,0-2.06,0-2.78-.09Zm0-7.84a22.73,22.73,0,0,0,2.6.12c2.47,0,3.85-.62,3.85-3.09,0-2.15-1-3-3.77-3a21.92,21.92,0,0,0-2.68.17Z"/><path class="cls-1" d="M194.56,135h-3.92c-2.47,0-2.89.47-2.89,2.67v2.3h6.52v1.71h-6.51v2.58c0,2.21.42,2.67,2.89,2.67h3.92v1.66c-1.16,0-2.74.09-3.85.09-2.63,0-5.07-.14-5.07-3.5V136.7c0-3.36,2.44-3.51,5.07-3.51,1,0,2.67.05,3.85.1Z"/><path class="cls-1" d="M197.8,148.59V133.46a29.85,29.85,0,0,1,4.72-.38c3.26,0,6,.63,6,4.64,0,2.9-1.36,4.11-3.46,4.53l3.63,6.34h-2.47l-3.37-6.14h-.11c-.8,0-2.06-.06-2.78-.1v6.24Zm2.12-8a22.73,22.73,0,0,0,2.6.12c2.44,0,3.85-.62,3.85-3,0-2.12-1-3-3.77-3a20.12,20.12,0,0,0-2.68.19Z"/><path class="cls-1" d="M210.48,148.59l4.94-14a1.81,1.81,0,0,1,2.07-1.47,1.78,1.78,0,0,1,1.46,1.47l4.86,14h-2.25l-1.43-4.25h-6.06l-1.42,4.25Zm9.1-5.92-2.49-7.4-2.47,7.4Z"/><path class="cls-1" d="M235.14,135h-4v13.62H229V135h-4v-1.74h10.14Z"/><path class="cls-1" d="M237.59,133.23h2.12v15.36h-2.12Z"/><path class="cls-1" d="M250.2,147.28c-.35,1-.87,1.47-1.66,1.47s-1.31-.43-1.66-1.47l-4.68-14h2.25l4.12,13,4.16-13h2.16Z"/><path class="cls-1" d="M256.12,148.59l5-14a1.79,1.79,0,0,1,2.09-1.43,1.77,1.77,0,0,1,1.43,1.43l4.87,14h-2.25l-1.43-4.25h-6.06l-1.5,4.25Zm9.11-5.92-2.49-7.4-2.47,7.4Z"/><path class="cls-1" d="M276.79,148.59l5-14a1.79,1.79,0,0,1,2.09-1.43,1.77,1.77,0,0,1,1.43,1.43l4.87,14h-2.25l-1.43-4.25h-6.06L279,148.59Zm9.11-5.92-2.49-7.4-2.47,7.4Z"/><path class="cls-1" d="M292.65,133.23h2.12v15.36h-2.12Z"/><path class="cls-1" d="M307.16,148.55c-1.17,0-2.57.08-3.59.08-2.62,0-5.07-.14-5.07-3.5v-11.9h2.12v11c0,2.19.41,2.67,2.89,2.67h3.65Z"/><path class="cls-1" d="M309,140.91c0-5.56,1.31-7.83,5.93-7.83s5.92,2.27,5.92,7.83-1.3,7.84-5.92,7.84S309,146.48,309,140.91Zm9.7,0c0-3.57-.13-6.06-3.77-6.06s-3.77,2.49-3.77,6.06.12,6.07,3.77,6.07S318.69,144.48,318.69,140.91Z"/><path class="cls-1" d="M325.62,137c0,1.93,1,2.22,3.27,2.86,2.6.73,4.18,1.76,4.18,4.51,0,3.23-2,4.41-5.46,4.41a19.24,19.24,0,0,1-4-.39l.2-1.73a29.77,29.77,0,0,0,3.77.3c2,0,3.33-.43,3.33-2.51,0-1.82-1.33-2.24-3.09-2.78-2.71-.82-4.29-1.57-4.29-4.38,0-3.15,1.88-4.18,5.25-4.18a21.35,21.35,0,0,1,4,.39l-.2,1.68a21.4,21.4,0,0,0-3.11-.28C327.66,134.87,325.62,135.06,325.62,137Z"/></svg>