<svg id="Layer_1" data-name="Layer 1" xmlns="http://www.w3.org/2000/svg" xmlns:xlink="http://www.w3.org/1999/xlink" viewBox="0 0 500 210.78"><defs><style>.cls-1{fill:#165c7d;}.cls-2{fill:url(#Gradiente_sem_nome);}.cls-3{fill:url(#Gradiente_sem_nome_2);}.cls-4{fill:#886b25;}.cls-5{fill:url(#Gradiente_sem_nome_3);}.cls-6{fill:#007d8a;}.cls-7{fill:#007041;}</style><linearGradient id="Gradiente_sem_nome" x1="125.04" y1="67.2" x2="181.04" y2="67.2" gradientTransform="matrix(1, 0, 0, -1, -20.12, 190.43)" gradientUnits="userSpaceOnUse"><stop offset="0" stop-color="#00a9ce"/><stop offset="0.41" stop-color="#00a7cb"/><stop offset="0.66" stop-color="#009fc3"/><stop offset="0.86" stop-color="#0091b5"/><stop offset="1" stop-color="#0083a6"/></linearGradient><linearGradient id="Gradiente_sem_nome_2" x1="133.48" y1="106.64" x2="183.36" y2="106.64" gradientTransform="matrix(1, 0, 0, -1, -20.12, 190.43)" gradientUnits="userSpaceOnUse"><stop offset="0" stop-color="#ffa300"/><stop offset="0.35" stop-color="#fca200"/><stop offset="0.56" stop-color="#f49d00"/><stop offset="0.73" stop-color="#e69600"/><stop offset="0.89" stop-color="#d28b00"/><stop offset="1" stop-color="#bd8000"/></linearGradient><linearGradient id="Gradiente_sem_nome_3" x1="104.44" y1="91.99" x2="133.48" y2="91.99" gradientTransform="matrix(1, 0, 0, -1, -20.12, 190.43)" gradientUnits="userSpaceOnUse"><stop offset="0" stop-color="#00b140"/><stop offset="0.39" stop-color="#00ae40"/><stop offset="0.62" stop-color="#01a63e"/><stop offset="0.82" stop-color="#02983b"/><stop offset="0.99" stop-color="#038437"/><stop offset="1" stop-color="#038237"/></linearGradient></defs><title>Prancheta 17</title><path class="cls-1" d="M197.27,120.41A41.16,41.16,0,0,1,187,121.6c-13.09,0-16.33-6.13-16.33-20.12S173.88,81.36,187,81.36a41.12,41.12,0,0,1,10.31,1.2l-.71,6.18a49.07,49.07,0,0,0-8.12-.68c-9.48,0-9.65,5.67-9.65,13.42s.14,13.39,9.65,13.39a49.93,49.93,0,0,0,8.1-.68Z"/><path class="cls-1" d="M210.93,121.19h-8V82.44a74.54,74.54,0,0,1,12.82-1.08c8.72,0,15.84,1.72,15.84,12.39,0,7-2.93,10.25-7.56,11.65l9,15.79h-9.21l-8.09-14.87c-1.6,0-3.43-.09-4.82-.17Zm0-21.4a44.15,44.15,0,0,0,4.88.2c5,0,7.88-1.27,7.88-6.28,0-4.36-2-6.11-7.71-6.11a40.66,40.66,0,0,0-5,.34Z"/><path class="cls-1" d="M262.87,88.16H252c-4.72,0-5.53,1-5.53,5.33V98h15.67v6.36H246.46v5.11c0,4.37.81,5.37,5.53,5.37h10.88V121c-2.77.14-8.07.3-10.71.3-7.12,0-13.69-.39-13.69-9.62V91.27c0-9.24,6.57-9.61,13.69-9.61,2.86,0,8,.15,10.71.29Z"/><path class="cls-1" d="M270.21,82.48a72.81,72.81,0,0,1,12.85-1.12c14.77,0,17.39,6.72,17.39,20.12s-2.62,20.12-17.39,20.12a74.88,74.88,0,0,1-12.85-1.08Zm8,5.7v26.6a24.7,24.7,0,0,0,3.74.29c10.39,0,10.47-5.89,10.47-13.59s-.09-13.61-10.48-13.61A27.46,27.46,0,0,0,278.21,88.18Z"/><path class="cls-1" d="M307.31,81.76h8v39.43h-8Z"/><path class="cls-1" d="M323.21,121.19V91.27c0-9.24,6.58-9.61,13.71-9.61,2.86,0,8,.17,10.71.29v6.21h-10.9c-4.72,0-5.53,1-5.53,5.33V98h15.66v6.36H331.21v16.87Z"/><path class="cls-1" d="M352.09,101.48c0-14.28,3.5-20.12,15.77-20.12s15.75,5.84,15.75,20.12-3.5,20.12-15.75,20.12S352.09,115.76,352.09,101.48Zm23.4,0c0-8-.17-13.54-7.63-13.54s-7.65,5.5-7.65,13.54.17,13.52,7.65,13.52S375.49,109.52,375.49,101.48Z"/><path class="cls-1" d="M398.71,114.56h16.86v6.63H392.84c-2.93,0-4.5-1.08-4.5-3a5.87,5.87,0,0,1,1-3l16.07-26.84H389.49V81.76h21.72c3,0,4.47,1.16,4.47,3a5.87,5.87,0,0,1-1,3Z"/><path class="cls-1" d="M180.35,148.38a16.16,16.16,0,0,1-3.61.38c-4.93,0-6.14-2.39-6.14-7.84s1.21-7.83,6.14-7.83a16.82,16.82,0,0,1,3.61.37l-.14,1.67a18.67,18.67,0,0,0-2.8-.24c-4.38,0-4.6,2.32-4.6,6s.26,6,4.6,6a18.67,18.67,0,0,0,2.8-.24Z"/><path class="cls-1" d="M182.65,140.92c0-5.56,1.31-7.83,5.93-7.83s5.92,2.27,5.92,7.83-1.31,7.84-5.92,7.84S182.65,146.49,182.65,140.92Zm9.7,0c0-3.57-.13-6.06-3.77-6.06s-3.77,2.49-3.77,6.06.11,6.07,3.77,6.07S192.35,144.49,192.35,140.92Z"/><path class="cls-1" d="M197.53,140.92c0-5.56,1.31-7.83,5.92-7.83s5.93,2.27,5.93,7.83-1.31,7.84-5.93,7.84S197.53,146.49,197.53,140.92Zm9.69,0c0-3.57-.13-6.06-3.77-6.06s-3.77,2.49-3.77,6.06.12,6.07,3.77,6.07,3.76-2.5,3.76-6.07Z"/><path class="cls-1" d="M214.89,148.6h-2.11V133.47a28.71,28.71,0,0,1,4.72-.38c3.28,0,6,.66,6,4.7s-2.38,4.79-5.77,4.79c-.8,0-2.06,0-2.79-.09Zm0-7.84a22.8,22.8,0,0,0,2.61.12c2.46,0,3.85-.62,3.85-3.09,0-2.15-1-3-3.77-3a22,22,0,0,0-2.69.17Z"/><path class="cls-1" d="M235.07,135h-3.86c-2.48,0-2.89.47-2.89,2.67v2.3h6.5v1.71h-6.5v2.58c0,2.21.41,2.67,2.89,2.67h3.91v1.66c-1.15,0-2.73.09-3.84.09-2.63,0-5.08-.14-5.08-3.5v-8.43c0-3.36,2.45-3.51,5.08-3.51,1,0,2.67,0,3.84.1Z"/><path class="cls-1" d="M238.32,148.6V133.47a28.71,28.71,0,0,1,4.72-.38c3.25,0,6,.63,6,4.64,0,2.9-1.36,4.11-3.45,4.53l3.63,6.34H246.7l-3.38-6.14h-.11c-.8,0-2.05-.06-2.77-.1v6.24Zm2.12-8a22.62,22.62,0,0,0,2.6.12c2.44,0,3.85-.62,3.85-3,0-2.12-1-2.95-3.77-2.95a20.12,20.12,0,0,0-2.68.19Z"/><path class="cls-1" d="M251,148.6l4.94-14a1.79,1.79,0,0,1,3.53,0l4.87,14h-2.25l-1.43-4.25h-6.06l-1.38,4.25Zm9.1-5.92-2.48-7.41-2.47,7.41Z"/><path class="cls-1" d="M275.66,135h-4V148.6h-2.12V135h-4v-1.74h10.14Z"/><path class="cls-1" d="M278.1,133.24h2.11V148.6h-2.13Z"/><path class="cls-1" d="M290.72,147.28c-.36,1-.88,1.48-1.66,1.48s-1.32-.43-1.67-1.48l-4.68-14H285l4.11,13,4.16-13h2.16Z"/><path class="cls-1" d="M296.64,148.6l4.94-14a1.79,1.79,0,0,1,3.53,0l4.87,14h-2.25l-1.43-4.25h-6.09l-1.42,4.25Zm9.1-5.92-2.48-7.41-2.47,7.41Z"/><path class="cls-1" d="M317.31,148.6l4.94-14a1.79,1.79,0,0,1,3.53,0l4.87,14H328.4L327,144.35h-6.06l-1.42,4.25Zm9.1-5.92-2.48-7.41-2.47,7.41Z"/><path class="cls-1" d="M333.21,133.24h2.13V148.6h-2.13Z"/><path class="cls-1" d="M347.67,148.56c-1.17,0-2.56.08-3.58.08-2.62,0-5.07-.14-5.07-3.5v-11.9h2.12v11c0,2.19.41,2.67,2.89,2.67h3.64Z"/><path class="cls-1" d="M349.51,140.92c0-5.56,1.31-7.83,5.93-7.83s5.92,2.27,5.92,7.83-1.31,7.84-5.92,7.84S349.51,146.49,349.51,140.92Zm9.7,0c0-3.57-.13-6.06-3.77-6.06s-3.77,2.49-3.77,6.06.11,6.07,3.77,6.07S359.21,144.49,359.21,140.92Z"/><path class="cls-1" d="M366.14,137c0,1.93,1,2.22,3.27,2.86,2.59.73,4.17,1.76,4.17,4.51,0,3.23-1.95,4.41-5.45,4.41a19.24,19.24,0,0,1-4-.39l.21-1.73a29.62,29.62,0,0,0,3.76.3c2,0,3.33-.43,3.33-2.51,0-1.82-1.32-2.24-3.09-2.78-2.7-.83-4.28-1.57-4.28-4.38,0-3.16,1.88-4.18,5.25-4.18a20.7,20.7,0,0,1,4,.39l-.19,1.68a21.65,21.65,0,0,0-3.11-.28C368.21,134.87,366.14,135.06,366.14,137Z"/><path class="cls-1" d="M143.35,106.19l-7.62-18.67c-.75-1.73-1.31-3-2.45-3s-1.71,1.32-2.4,3l-4.67,10.76-4.55-10.76c-.69-1.65-1.24-3-2.4-3s-1.7,1.24-2.46,3l-7.59,18.68a3.6,3.6,0,0,0,3.54,5.17h3.35v4.25a2.77,2.77,0,0,0,2.77,2.77h1a2.77,2.77,0,0,0,2.77-2.77v-2.08a.81.81,0,0,0,0-.22v-2H130v4.3a2.77,2.77,0,0,0,2.77,2.77h1a2.77,2.77,0,0,0,2.77-2.77v-4.25h3.35a3.59,3.59,0,0,0,3.9-3.26,3.66,3.66,0,0,0-.37-1.92ZM123,109.3H120.5v6.32a.7.7,0,0,1-.7.7h-1a.7.7,0,0,1-.7-.7V109.3h-5.38a1.56,1.56,0,0,1-1.81-1.26,1.54,1.54,0,0,1,.19-1.07l7.6-18.62c.11-.24.33-.75.55-1.18.14.29.31.68.51,1.15l5.36,12.61-2,5.27A4,4,0,0,0,123,109.3Zm4.49-.69a1.52,1.52,0,0,1-2.11.41,1.6,1.6,0,0,1-.41-.41,1.86,1.86,0,0,1,0-1.66l1.2-3.22,1.3,3.23A1.81,1.81,0,0,1,127.53,108.61Zm13.86,0a1.81,1.81,0,0,1-1.57.65H134.4v6.32a.7.7,0,0,1-.7.7h-1a.7.7,0,0,1-.7-.7V109.3h-2.5a4,4,0,0,0,0-3.1l-2.11-5.27,5.42-12.61c.2-.47.37-.86.51-1.15.22.43.44.93.54,1.15l7.6,18.63a1.83,1.83,0,0,1-.07,1.7Z"/><path class="cls-2" d="M147.43,120.41a28.85,28.85,0,0,1-21.22,9.23,19.08,19.08,0,0,1-2.62-.12,31.56,31.56,0,0,1-18.67-.81,31.23,31.23,0,0,0,55.73-23.11A31.32,31.32,0,0,1,147.43,120.41Z"/><path class="cls-3" d="M131.12,72.21A29,29,0,0,1,152.21,88a31.11,31.11,0,0,1,8.5,17.59,31.26,31.26,0,0,0-47.35-37.41c.74-.06,1.48-.08,2.22-.08A31.05,31.05,0,0,1,131.12,72.21Z"/><path class="cls-4" d="M155.21,100.72a28.78,28.78,0,0,1-7.75,19.69,31.29,31.29,0,0,0,13.27-14.84A31,31,0,0,0,152.21,88,28.74,28.74,0,0,1,155.21,100.72Z"/><path class="cls-5" d="M98.5,108.87a29,29,0,0,1,3.27-23.59,31.27,31.27,0,0,1,11.59-17.12,31.24,31.24,0,0,0-8.4,60.55,31.16,31.16,0,0,1-6.47-19C98.49,109.42,98.5,109.16,98.5,108.87Z"/><path class="cls-6" d="M123.63,129.52A29,29,0,0,1,98.5,108.87v.78a31.16,31.16,0,0,0,6.47,19,31.56,31.56,0,0,0,18.67.81Z"/><path class="cls-7" d="M101.77,85.31a29,29,0,0,1,29.35-13.1,31.05,31.05,0,0,0-15.54-4.13,20.59,20.59,0,0,0-2.22.08A31.21,31.21,0,0,0,101.77,85.31Z"/></svg>